<?xml version="1.0" standalone="no"?>
<!DOCTYPE svg PUBLIC "-//W3C//DTD SVG 1.1//EN" "http://www.w3.org/Graphics/SVG/1.1/DTD/svg11.dtd" >
<svg xmlns="http://www.w3.org/2000/svg">
<metadata>
This is a custom SVG webfont generated by Font Squirrel.
Copyright   : Copyright 19901996 as an unpublished work by Bitstream Inc All rights reserved PL modification  1996 Kuba Tatarkiewicz
</metadata>
<defs>
<font id="ShelleyAllegroPLRegular" horiz-adv-x="1949" >
<font-face units-per-em="2048" ascent="1638" descent="-410" />
<missing-glyph horiz-adv-x="479" />
<glyph unicode=" "  horiz-adv-x="479" />
<glyph unicode="&#x09;" horiz-adv-x="479" />
<glyph unicode="&#xa0;" horiz-adv-x="479" />
<glyph unicode="!" horiz-adv-x="618" d="M20 55q0 39 29 74t68 35q66 0 65 -68q0 -37 -28.5 -72.5t-65.5 -35.5q-27 0 -47.5 20t-20.5 47zM176 256q0 20 25 66l438 815l201 20l-584 -862q-41 -59 -59 -59q-21 0 -21 20z" />
<glyph unicode="&#x22;" horiz-adv-x="759" d="M494 1262q0 2 80.5 76.5t97.5 127.5q10 66 20 133q23 86 78 87q70 0 70 -68q0 -84 -115 -203q-164 -170 -207 -170q-24 1 -24 17zM760 1262q0 2 81 76.5t97 127.5q10 66 20 133q23 86 78 87q68 0 68 -68q0 -84 -115 -203q-162 -170 -207 -170q-22 1 -22 17z" />
<glyph unicode="#" horiz-adv-x="1800" d="M147 563l35 92h387l121 346h-422l33 93h422l201 567h108l-198 -567h342l200 567h111l-203 -567h369l-31 -93h-371l-121 -346h398l-33 -92h-397l-199 -563h-111l199 563h-344l-199 -563h-106l199 563h-390zM676 655h344l123 346h-342z" />
<glyph unicode="$" horiz-adv-x="823" d="M4 -129l100 192q-90 76 -90 173q0 92 57.5 160.5t147.5 68.5q49 0 86 -29l101 191q-31 98 -31 155q0 123 80 216.5t202 105.5l97 174l28 -16l-80 -158q70 -2 136 -33l108 203l33 -14l-111 -207q59 -55 60 -133q0 -78 -47 -136q-49 -63 -125 -63q-18 0 -56 14l-108 -205 q33 -86 33 -157q0 -125 -89.5 -226.5t-213.5 -126.5l-91 -165l-30 18l78 145q-70 0 -138 29l-106 -194zM51 242q0 -92 74 -148l108 205q-25 12 -43 57q-14 37 -32 37q-45 0 -76 -52t-31 -99zM154 80q70 -27 106 -27q20 0 39 2l195 369q-23 68 -68 162l-96 -176 q18 -31 18 -54q0 -74 -67 -73q-2 0 -9 2h-8zM344 63q166 51 166 261q0 35 -2 55zM487 858q2 -6 9 -61l137 256q-146 -43 -146 -195zM508 748q23 -57 65 -170l99 178q-29 29 -29 57q0 70 66 70q8 0 28 -4l84 163q-57 25 -104 25q-12 0 -41 -4zM766 858q6 -57 43 -57 q39 0 61 47q18 35 19 80q0 57 -37 94z" />
<glyph unicode="%" horiz-adv-x="1310" d="M12 -121q0 18 74 90l1040 1020q-139 -70 -235 -69q-121 0 -184 59q-18 -135 -107 -266q-104 -154 -227 -154q-70 0 -110 51.5t-40 122.5q0 135 115 267.5t248 132.5q78 0 119 -72q37 -63 72.5 -84t111.5 -21q90 0 182 48q57 29 133 86q63 47 78 47q16 0 16 -9 q0 -18 -63 -84l-1077 -1099l-60 -60q-25 -20 -55 -20q-31 0 -31 14zM295 684q0 -88 76 -88q106 0 204 149q92 137 93 250q0 96 -78 97q-70 0 -158 -111q-137 -172 -137 -297zM741 162q0 135 117 267t250 132q123 0 123 -137q0 -131 -103 -279q-113 -158 -237 -157 q-68 0 -109 52t-41 122zM817 115q0 -88 74 -88q106 0 207 149q92 137 92 250q0 96 -78 96q-68 0 -158 -112q-137 -170 -137 -295z" />
<glyph unicode="&#x26;" horiz-adv-x="1669" d="M51 -408q0 96 81 184.5t175 88.5q18 0 19 -8q0 -12 -29 -23l-35 -14q-23 -8 -31 -13q-143 -76 -143 -210q0 -113 98 -179q86 -55 205 -55q147 0 291 76q135 70 236 190q162 195 161 410q0 88 -45 201q-207 -252 -456 -252q-143 0 -232.5 83t-89.5 224q0 195 193 332 q125 90 366 170q-14 80 -14 127q0 141 76 258q88 135 221 135q88 0 141 -50t53 -137q0 -139 -153 -241q-82 -55 -277 -129q33 -131 182 -459q326 432 408 522q176 193 307 193q41 0 66.5 -29t25.5 -69q0 -84 -86 -84q-33 0 -71.5 36.5t-53.5 36.5q-74 0 -219 -172 q-61 -80 -360 -469q57 -125 57 -297q0 -289 -188 -491q-195 -205 -481 -205q-160 0 -273 78q-125 87 -125 241zM383 252q0 -94 56.5 -163t148.5 -69q233 0 430 252q-135 301 -193 476q-442 -183 -442 -496zM834 922q0 -41 14 -117q184 61 264 110q145 92 145 228 q0 66 -45 103.5t-110 37.5q-121 0 -199 -125q-69 -110 -69 -237z" />
<glyph unicode="'" horiz-adv-x="391" d="M109 1563q0 109 86 108q88 0 88 -108q0 -20 -4 -52l-68 -516h-33l-67 516q-2 17 -2 52z" />
<glyph unicode="(" horiz-adv-x="757" d="M113 158q0 362 262 719q209 287 561 538q186 133 346 221q127 70 150 70q20 0 20 -14q0 -6 -111 -70q-147 -84 -292 -201q-330 -264 -560 -620q-270 -418 -270 -778q0 -195 96 -345q33 -51 33 -57q0 -16 -14 -16q-18 0 -68 69q-153 220 -153 484z" />
<glyph unicode=")" horiz-adv-x="757" d="M-571 -383q0 8 112 72q154 88 295 200q326 262 557 619q268 416 269 776q0 195 -95 346q-33 53 -32 60q0 14 12 14q20 0 69 -70q154 -219 154 -483q0 -412 -328 -807q-256 -309 -684 -580q-84 -53 -159 -94q-121 -66 -150 -65q-20 0 -20 12z" />
<glyph unicode="*" horiz-adv-x="813" d="M457 1276q0 39 98 57l203 37l-172 117q-66 45 -66 74q0 18 14.5 36.5t32.5 18.5q31 0 82 -62l133 -157l17 207q8 102 53 102q55 0 55 -51q0 -12 -20 -70l-70 -194l187 88q57 27 81 26q45 0 45 -53q0 -45 -98 -61l-203 -35l172 -117q68 -45 68 -76q0 -20 -14.5 -36.5 t-34.5 -16.5q-33 0 -82 59l-133 158l-17 -207q-8 -102 -55 -102q-51 0 -51 53q0 18 18 70l70 196l-186 -92q-53 -27 -82 -26q-45 0 -45 57z" />
<glyph unicode="+" d="M291 653v90h639v652h90v-652h639v-90h-639v-653h-90v653h-639z" />
<glyph unicode="," horiz-adv-x="477" d="M-113 -225q0 18 27 26q61 20 80 25q147 59 147 205q0 133 92 133q72 0 72 -70q0 -121 -180 -248q-125 -88 -221 -88q-17 1 -17 17z" />
<glyph unicode="-" horiz-adv-x="833" d="M131 289l49 102h545l-49 -102h-545z" />
<glyph unicode="." horiz-adv-x="477" d="M117 55q0 39 28.5 74t67.5 35q66 0 66 -68q0 -37 -29 -72.5t-66 -35.5q-27 0 -47 20t-20 47z" />
<glyph unicode="/" horiz-adv-x="692" d="M-18 -209l735 1501h123l-840 -1509z" />
<glyph unicode="0" horiz-adv-x="952" d="M137 276q0 342 316 652q209 205 370 205q158 0 158 -218q0 -270 -225 -587q-242 -340 -430 -340q-98 0 -148 102q-41 77 -41 186zM258 162q0 -133 82 -133q156 0 358 329q217 352 217 609q0 131 -94 131q-141 0 -317 -267q-121 -182 -189 -382q-57 -172 -57 -287z" />
<glyph unicode="1" horiz-adv-x="731" d="M113 485q0 8 92 80q201 154 536 477q94 90 105 91q18 0 18 -15q0 -29 -26 -80l-521 -1015l-190 -23l606 971q-545 -502 -608 -502q-12 0 -12 16z" />
<glyph unicode="2" horiz-adv-x="952" d="M-14 6q0 84 135 223q96 100 203 174l184 123q211 141 291 305q37 76 37 130q0 63 -44 100t-108 37q-131 0 -244 -92q-119 -98 -118 -226q0 -35 19 -63.5t52 -28.5q135 0 250 203q14 27 39 84q14 35 27 35q16 0 16 -33q0 -125 -92 -234q-96 -115 -219 -114q-61 0 -98 39 t-37 102q0 154 145 262q135 100 293 101q109 0 177.5 -60.5t68.5 -167.5q0 -236 -347 -409q-96 -45 -284 -140q-135 -70 -203 -178q115 100 209 101q115 0 139 -103q6 -33 15.5 -69.5t42.5 -36.5q61 0 180 141q88 104 92 104q10 0 10 -18q0 -25 -74 -107q-94 -104 -143 -141 q-72 -53 -145 -53q-100 0 -125 80l-8 82q-10 49 -48 49q-80 0 -172 -98q-27 -29 -65 -86q-23 -35 -35 -35q-16 0 -16 18z" />
<glyph unicode="3" horiz-adv-x="952" d="M55 197q0 135 105 135q74 0 73 -82q0 -51 -54 -80t-54 -39q0 -41 51 -65q43 -20 88 -21q150 0 291 180q106 137 107 230q0 96 -93 96q-41 0 -100 -28.5t-66 -28.5q-23 0 -22 18q0 23 61 51q100 47 158 86q264 172 264 332q0 106 -141 106q-98 0 -199 -67 q-111 -74 -110 -168q0 -76 73 -76q51 0 113 47q51 41 86 92q23 35 35 74q8 27 18 27q12 0 13 -19q0 -104 -77 -191t-181 -87q-117 0 -117 115q0 127 135 217q123 82 254 82q92 0 149 -46q66 -49 66 -137q0 -217 -410 -362h19q193 0 192 -189q0 -137 -125 -256 q-70 -66 -170 -110.5t-190 -44.5q-102 0 -168 53q-74 58 -74 156z" />
<glyph unicode="4" horiz-adv-x="931" d="M49 213q20 27 154 227q197 295 372 654l207 18q-256 -391 -630 -836q70 16 88 17q51 0 231 -29l281 414q98 141 122 141q16 0 17 -16q0 -10 -78 -150q-109 -197 -197 -391q51 6 126 51t71 45q16 0 16 -16q0 -43 -94 -88q-86 -41 -135 -41h-12q-25 -43 -92 -203l-211 -22 l153 231q-143 23 -196 23q-41 0 -103.5 -22.5t-66.5 -22.5q-23 0 -23 16z" />
<glyph unicode="5" horiz-adv-x="911" d="M35 180q0 158 117 158q76 0 75 -82q0 -70 -53 -86q-37 -6 -43 -10q-18 -8 -18 -35q0 -43 47 -70q37 -20 84 -20q147 0 284 176q129 166 129 317q0 127 -116 127q-72 0 -138 -43q-35 -23 -88 -80q-41 -43 -55 -43q-18 0 -18 19q0 23 16 49l360 576q152 -49 256 -50 q39 0 115 23.5t66 23.5q12 0 12 -16q0 -35 -88 -94q-106 -72 -244 -72q-86 0 -160 23l-210 -332q113 61 190 61q104 0 166.5 -65.5t62.5 -169.5q0 -184 -176 -334q-168 -141 -356 -141q-96 0 -154 47q-63 51 -63 143z" />
<glyph unicode="6" horiz-adv-x="960" d="M137 272q0 272 256 551q285 309 557 310q70 0 129 -43q63 -49 64 -117q0 -47 -30 -84t-75 -37q-29 0 -49 18.5t-20 47.5q0 35 30.5 73.5t30.5 40.5q0 59 -84 60q-162 0 -346 -201q-135 -147 -235 -340q135 164 253 164q88 0 138 -68q43 -59 43 -151q0 -176 -145.5 -342 t-319.5 -166q-102 0 -156 96q-41 75 -41 188zM248 137q0 -109 82 -108q135 0 254 202q104 182 104 330q0 111 -82 111q-127 0 -248 -209q-110 -189 -110 -326z" />
<glyph unicode="7" horiz-adv-x="888" d="M129 -12q94 197 291 440q139 174 438 494q-92 -43 -153 -43q-55 0 -150.5 52t-122.5 52q-33 0 -59 -37q-10 -14 -49 -92q-45 -90 -91 -90q-31 0 -30 29q0 20 37 67l86 113l77 129q27 45 52 45q18 0 18 -23q0 -14 -12 -32l-37 -72q92 61 151 61q37 0 120 -52t118 -52 q59 0 122.5 63.5t74.5 63.5q25 0 24 -29q0 -8 -94 -127q-324 -412 -614 -948z" />
<glyph unicode="8" horiz-adv-x="952" d="M88 209q0 129 139 237q82 63 254 142q-86 139 -86 231q0 133 117 225q106 88 244 89q96 0 155.5 -51.5t59.5 -145.5q0 -197 -320 -315q100 -152 101 -256q0 -156 -134 -271q-127 -106 -286 -106q-104 0 -174 59.5t-70 161.5zM170 207q0 -80 49 -132t129 -52 q106 0 183 73.5t77 179.5q0 125 -106 281q-332 -143 -332 -350zM543 891q0 -90 86 -240q262 90 262 299q0 66 -37 108t-102 42q-84 0 -146.5 -62.5t-62.5 -146.5z" />
<glyph unicode="9" horiz-adv-x="960" d="M-33 176q0 47 25.5 84t70.5 37q80 0 80 -88q0 -39 -31.5 -80t-31.5 -45q0 -55 98 -55q178 0 350 202q135 162 209 365q-131 -168 -250 -168q-92 0 -139 72q-39 61 -39 157q0 174 140.5 325t314.5 151q100 0 154 -91q43 -76 43 -184q0 -141 -66 -301q-61 -150 -160 -264 q-106 -125 -239 -207q-158 -96 -297 -96q-88 0 -156 47q-76 53 -76 139zM414 584q0 -113 73 -113q133 0 252 197q109 178 109 321q0 111 -80 111q-137 0 -252 -195q-102 -174 -102 -321z" />
<glyph unicode=":" horiz-adv-x="530" d="M43 55q0 39 28.5 74t65.5 35q66 0 66 -68q0 -37 -28 -72.5t-64 -35.5q-68 -1 -68 67zM313 518q0 39 29 73t68 34q66 0 65 -68q0 -39 -28.5 -73.5t-67.5 -34.5q-66 -1 -66 69z" />
<glyph unicode=";" horiz-adv-x="530" d="M-209 -225q0 18 29 26l78 25q147 59 147 203q0 133 92 133q74 0 74 -68q0 -121 -182 -248q-127 -88 -219 -88q-19 1 -19 17zM313 518q0 39 29 73t68 34q66 0 65 -68q0 -39 -28.5 -73.5t-67.5 -34.5q-66 -1 -66 69z" />
<glyph unicode="&#x3c;" d="M301 662v71l1348 551v-102l-1194 -484l1194 -485v-100z" />
<glyph unicode="=" d="M291 444v93h1368v-93h-1368zM291 858v92h1368v-92h-1368z" />
<glyph unicode="&#x3e;" d="M301 113v100l1194 485l-1194 484v102l1348 -551v-71z" />
<glyph unicode="?" horiz-adv-x="763" d="M43 55q0 39 28.5 74t65.5 35q66 0 66 -68q0 -37 -28 -72.5t-64 -35.5q-68 -1 -68 67zM184 252q0 37 82 145q63 84 111 131q84 78 250 240q125 127 125 274q0 88 -113 88q-57 0 -143 -47q-96 -53 -97 -104q0 -6 44 -37t44 -70q0 -33 -22.5 -56t-54.5 -23q-39 0 -61.5 30.5 t-22.5 71.5q0 111 106 195q98 76 213 75q100 0 159.5 -62.5t59.5 -164.5q0 -158 -166 -276q-2 -2 -161 -99q-190 -115 -289 -272q-37 -57 -49 -58q-15 1 -15 19z" />
<glyph unicode="@" horiz-adv-x="2308" d="M170 612q0 471 385 793q303 252 719 252q379 0 614 -199q252 -213 252 -584q0 -375 -254 -606q-137 -125 -287 -125q-219 0 -235 250q-135 -248 -363 -248q-145 0 -227 121q-70 104 -69 258q0 256 210 465q160 158 334 158q195 0 252 -229l66 210h137l-193 -690 q-23 -80 -22 -125q0 -127 119 -127q121 0 254 125q233 217 233 568q0 348 -237 546q-221 186 -576 187q-408 0 -682 -256q-317 -295 -317 -781q0 -383 282 -622q266 -225 658 -225q403 0 710 239l31 -35q-336 -250 -741 -249q-430 0 -703 208q-350 268 -350 721zM836 436 q0 -102 41 -168q49 -78 145 -78q158 0 291 205q145 223 145 455q0 100 -55 176q-61 84 -158 84q-123 0 -227 -154q-182 -270 -182 -520z" />
<glyph unicode="A" horiz-adv-x="2795" d="M342 479q0 236 201 393q184 145 426 146q178 0 307 -80q150 -94 149 -264q0 -197 -151 -309q-135 -102 -338 -103q-117 0 -117 27q0 10 21 8l30 -2q29 -2 58 -2q176 0 305 84q147 96 147 264q0 141 -118 215q-98 61 -248 62q-229 0 -410 -130q-199 -145 -198 -364 q0 -209 196 -318q160 -86 387 -86q455 0 811 322q-297 242 -297 528q0 160 101.5 262.5t261.5 102.5q301 0 483 -330q256 281 424 422q272 227 592 365q-489 -590 -881 -1518q166 10 279 117q39 37 49 37q6 -2 6 -6q0 -43 -92 -103q-111 -72 -258 -84l-60 -121l-186 -26 l66 162q-233 23 -457 167q-385 -330 -836 -329q-268 0 -444 108q-209 129 -209 383zM1589 793q0 -242 242 -428q119 106 493 516q-145 285 -397 284q-147 0 -242.5 -111t-95.5 -261zM1862 346q180 -139 438 -164q78 188 78 381q0 160 -37 285q-153 -170 -479 -502zM2365 872 q45 -139 45 -303q0 -92 -18 -196q291 623 832 1212q-376 -158 -859 -713z" />
<glyph unicode="B" horiz-adv-x="2447" d="M354 1176q0 55 72 180q109 188 270 295q172 113 379 112q178 0 305 -94q209 39 334 39q238 0 455 -86q131 61 139 61q20 0 21 -8q0 -10 -29 -24q-53 -27 -82 -47q217 -125 217 -330q0 -274 -373 -385q301 -76 301 -352q0 -219 -186 -384t-408 -165q-121 0 -198.5 63.5 t-77.5 181.5q0 188 168 328q51 43 70 43q8 0 8 -12q0 -4 -62 -57q-152 -129 -151 -295q0 -96 54 -150.5t151 -54.5q195 0 333 182q131 168 131 369q0 94 -49 178q-55 98 -143 98q-20 0 -72.5 -20.5t-81.5 -20.5q-63 0 -63 49q0 57 80 58q18 0 55 -6.5t55 -6.5q123 0 217 152 q84 133 84 262q0 141 -112 227q-201 -168 -340 -415q-72 -139 -221 -416q-195 -348 -467 -555q-248 -188 -482 -188q-113 0 -196 49q-100 57 -101 164q0 51 32 85.5t81 34.5q43 0 69.5 -29.5t26.5 -72.5q0 -23 -15 -55.5t-15 -40.5q0 -49 49 -76q39 -23 92 -23 q217 0 430 244q121 141 285 432l172 307q96 158 190 265q145 162 369 323q-178 86 -414 86q-150 0 -297 -35q106 -117 107 -292q0 -147 -70 -298t-178 -259q-209 -207 -447 -207q-129 0 -204 67q-82 70 -82 197q0 279 268 516q221 195 524 295q-106 74 -252 74 q-219 0 -401 -138q-166 -125 -266 -335q-47 -98 -54 -99q-4 1 -4 15zM573 874q0 -104 60.5 -164.5t165.5 -60.5q186 0 385 217q242 264 241 553q0 123 -71 209q-356 -106 -580 -342q-201 -213 -201 -412z" />
<glyph unicode="C" horiz-adv-x="1755" d="M295 1266q0 217 176 352q162 123 385 123q322 0 576 -262q352 195 577 194q182 0 182 -155q0 -162 -225 -336q-152 -115 -367 -213q-342 -156 -684 -181q-115 -254 -114 -479q0 -272 229 -291q-8 98 -8 119q0 217 115 402q133 213 338 213q94 0 147 -58.5t53 -152.5 q0 -168 -164 -336q-180 -186 -436 -223q2 -35 21.5 -102.5t19.5 -86.5q0 -10 -14 -10q-37 0 -68 197h-47q-168 0 -266 126q-92 117 -92 289t96 402q-190 39 -305 155q-125 128 -125 314zM348 1315q0 -172 146 -283q123 -94 307 -114q231 336 602 544q-238 246 -537 246 q-195 0 -344 -96q-174 -113 -174 -297zM971 905h45q328 0 653 146q170 76 301 180q186 147 187 280q0 129 -146 129q-215 0 -538 -208q127 -201 126 -224q0 -16 -12 -16q-10 0 -43 59q-49 86 -102 160q-328 -236 -471 -506zM1069 20q199 18 375 166q195 160 194 351 q0 63 -34.5 109t-98.5 46q-186 0 -336 -278q-100 -186 -100 -361v-33z" />
<glyph unicode="D" horiz-adv-x="2048" d="M88 920q0 180 127 407q102 184 266 291q172 115 375 115q168 0 307 -84q131 16 185 16q342 0 555 -180q205 154 280 153q12 0 12 -6t-69 -51q-96 -61 -174 -141q162 -207 162 -459q0 -227 -111 -434q-109 -199 -295 -338q-281 -209 -709 -209q-49 0 -144 2t-144 2 q-39 0 -120 -8t-122 -8q-233 0 -233 84q0 53 112 53q70 0 201 -29.5t186 -29.5q229 0 471 426q82 150 250 444q166 276 422 522q-186 162 -481 162q-66 0 -180 -18q115 -150 114 -334q0 -301 -223 -533q-184 -193 -406 -192q-150 0 -243.5 91t-93.5 240q0 276 245 498 q211 190 506 264q-113 63 -258 64q-229 0 -412 -148q-164 -131 -260 -356q-43 -98 -59 -223q-12 -86 -23 -86q-16 0 -16 33zM492 788q0 -209 217 -208q203 0 360 161q229 236 229 537q0 180 -122 315q-295 -92 -498 -346q-186 -236 -186 -459zM829 45q102 -10 203 -10 q389 0 662 205q174 131 278 321q109 199 109 410q0 258 -152 440q-115 -121 -246 -369q-176 -330 -231 -415q-308 -465 -623 -582z" />
<glyph unicode="E" horiz-adv-x="1396" d="M264 1362q0 174 150 278q131 92 313 93q231 0 418 -148q225 100 379 101q154 0 153 -111q0 -111 -186 -258q-211 -166 -530 -258q16 -53 51 -70q25 -12 86 -12q10 0 32.5 2t32.5 2q63 0 64 -37q0 -37 -58 -37q-27 0 -74.5 12.5t-68.5 12.5q-133 0 -305 -141 q-240 -197 -240 -482q0 -109 56 -184q61 -84 165 -94v32q-2 49 -2 37q0 229 103 418q125 225 338 225q84 0 136 -52t52 -136q0 -227 -180 -389q-164 -147 -399 -178q2 -29 20 -103q16 -66 16 -98q0 -14 -6 -16q-29 0 -71 217h-11q-172 0 -272 84q-109 90 -109 258 q0 246 211 420q170 141 439 211q-68 33 -99 81q-80 -12 -149 -12q-182 0 -305 74q-150 88 -150 258zM328 1411q0 -139 143 -227q123 -76 270 -76q-2 0 -1 0q0 1 85 6q-12 43 -12 76q0 203 299 373q-174 137 -385 137q-150 0 -264 -68q-135 -82 -135 -221zM748 29h22 q150 0 293 108q98 76 162 178q72 115 71 228q0 156 -129 155q-170 0 -303 -231q-117 -203 -116 -385v-53zM952 1124q299 53 508 207q180 133 180 244q0 80 -104 80q-133 0 -322 -133q96 -102 97 -136q0 -10 -4 -10q-12 0 -78 78q-23 27 -39 43q-238 -143 -238 -369v-4z" />
<glyph unicode="F" horiz-adv-x="2392" d="M317 465q0 248 191 405q180 147 432 148q182 0 311 -84q152 -96 152 -268q0 -180 -164 -301q-147 -109 -334 -109q-59 0 -162 25q-131 31 -131 69q0 8 15 8q-22 0 -22 -3q0 -8 98 -31q144 -35 198 -35q168 0 303 88q152 100 152 262q0 141 -113 219q-96 66 -246 66 q-229 0 -417 -127q-215 -141 -215 -361q0 -211 192 -325q160 -94 387 -95q356 0 612 199q219 166 406 512q-199 -66 -358 -219q-51 -49 -62 -49q-4 2 -4 6q0 72 195 186q156 90 260 123q182 324 393 535q164 164 225 164q10 0 10 -5q-10 -10 -57 -59q-184 -193 -379 -606 q152 16 447 158q18 0 18 -13q-12 -14 -72 -90q-98 -123 -172 -272q-12 -29 -26 -58q-16 -35 -37 -47q-92 -57 -137 -57q-12 0 -13 22q0 31 70 134q86 127 227 272q-154 -72 -325 -86q-430 -780 -1215 -780q-260 0 -430 106q-203 127 -203 373zM1251 1149q0 297 459 424 q289 80 682 80q51 0 154.5 -2t154.5 -2q96 0 286 14q168 13 168 14h-3q27 0 26 -18q0 -35 -100 -86q-123 -61 -276 -62q-121 0 -369 30t-375 30q-258 0 -473 -80q-295 -111 -295 -328q0 -90 86 -143q72 -43 168 -43q297 0 541 285q31 37 74 96q25 35 32 35q4 -2 4 -17 q0 -51 -86 -178q-207 -307 -505 -307q-135 0 -236 59q-117 72 -117 199z" />
<glyph unicode="G" horiz-adv-x="2134" d="M307 98q0 238 203 398q186 147 430 147q180 0 313 -86q152 -100 152 -272q0 -178 -158 -293q-143 -104 -327 -105q-57 0 -156 19q-125 25 -125 59q0 8 14 8q-21 0 -21 -2q0 -6 100 -25q146 -28 198 -28q160 0 289 92q141 102 141 258q0 135 -113 209q-96 66 -237 66 q-270 0 -471 -172q-166 -141 -166 -320q0 -186 170 -297q147 -94 344 -94q340 0 629 283q262 256 567 841q-293 -297 -531 -297q-119 0 -191.5 79t-72.5 200q0 35 2 65q-217 20 -352 123q-158 121 -158 326q0 223 178 360q162 127 392 127q328 0 546 -249q340 180 574 180 q184 0 184 -146q0 -137 -192 -301q-129 -109 -312 -204q-342 -180 -675 -209q-18 -68 -19 -131q0 -182 137 -183q111 0 246 97q92 66 281 247q37 37 114 113q41 39 66 39q12 0 12 -10q0 -12 -22 -47q-33 -47 -49 -80q-43 -80 -111 -242q-82 -197 -121 -279 q-158 -334 -434 -530q-293 -209 -647 -209q-246 0 -418 113q-203 131 -203 362zM831 1339q0 -178 164 -286q135 -90 328 -105q141 315 543 555q-213 236 -516 236q-193 0 -344 -101q-175 -115 -175 -299zM1507 946q416 0 754 201q127 76 223 166q137 131 137 231 q0 117 -149 117q-219 0 -524 -205q119 -162 118 -213q0 -18 -6 -18q-10 0 -43 59q-49 90 -98 154q-330 -238 -412 -492z" />
<glyph unicode="H" horiz-adv-x="2770" d="M242 438q0 252 219 410q197 141 459 141q184 0 309 -76q152 -92 151 -264q0 -190 -178 -311q-156 -104 -356 -105q-59 0 -168 23q-135 29 -135 66q0 8 12 8q-23 0 -23 -4q0 -7 104 -29q153 -33 212 -33q168 0 317 92q174 104 174 262q0 141 -127 216q-104 61 -256 61 q-240 0 -432 -125q-219 -141 -219 -371q0 -207 187 -313q152 -86 376 -86q332 0 572 188q195 152 383 478q-127 -57 -246 -138q-98 -66 -113 -65q-4 2 -4 8q0 35 174 131q119 66 211 107q170 313 428 628q-248 -127 -338 -127q-164 0 -163 195q0 20 6 59t6 60q0 68 -35 67 q-147 0 -391 -299q-51 -63 -117 -159q-37 -53 -49 -54q-8 0 -8 13q0 45 143 215q293 348 473 348q139 0 139 -174q0 -25 -4 -74t-4 -74q0 -74 58 -73q127 0 397 188q70 51 209 151q82 59 115 60q39 0 38 -31q0 -33 -106 -80q-145 -63 -227 -149q-70 -72 -154 -230 q-37 -68 -190 -389q141 45 409 123q262 352 543 559q240 176 381 176q133 0 133 -125q0 -201 -354 -391q-225 -121 -525 -207q-305 -553 -305 -770q0 -100 68 -100q80 0 268 197q86 90 90 90q12 0 12 -10q0 -27 -110 -140q-186 -188 -293 -188q-80 0 -125 88q-35 70 -35 158 q0 244 223 618q-229 -63 -401 -123q-197 -354 -479 -553q-313 -217 -692 -217q-256 0 -430 107q-207 126 -207 366zM2683 956q276 84 481 195q332 176 332 356q0 96 -90 97q-160 0 -408 -258q-163 -169 -315 -390z" />
<glyph unicode="I" horiz-adv-x="2025" d="M309 475q0 246 209 402q190 143 443 143q186 0 315 -92q145 -104 145 -283q0 -182 -164 -293q-145 -96 -335 -96q-59 0 -164 23q-131 29 -131 67q0 8 6 8q-22 0 -22 -3q0 -8 103 -32q151 -35 204 -34q168 0 305 84q160 98 159 258q0 152 -110 229q-96 66 -254 66 q-236 0 -420 -123q-209 -139 -209 -363q0 -203 172 -315q147 -94 363 -94q324 0 569 221q193 172 362 510q-119 16 -190.5 84.5t-71.5 185.5q0 174 172 318q131 111 330 180q336 119 621 119q33 0 39 -7q0 -6 -43 -18q-53 -16 -103 -47q-158 -100 -291 -301 q-84 -127 -254 -465q86 14 160 63q37 25 92 82q39 41 54 41q4 -2 4 -6q0 -41 -90 -115q-109 -88 -248 -114q-168 -354 -437 -551q-291 -213 -665 -213q-246 0 -422 115q-203 133 -203 366zM1702 1014q0 -190 180 -207q373 641 744 809q-332 -33 -582 -156 q-342 -170 -342 -446z" />
<glyph unicode="J" horiz-adv-x="2164" d="M45 -250q0 242 168 400.5t412 158.5q158 0 263 -98t105 -256q0 -125 -63 -207q162 113 612 207q113 211 373 719q-119 10 -192.5 78.5t-73.5 185.5q0 207 196 379q150 127 385 221q182 72 375 111q133 27 201 26q41 0 41 -10t-72 -49q-96 -53 -172 -129 q-182 -182 -473 -768q145 37 268 160q41 41 49 41q6 0 7 -5q0 -70 -142 -153q-119 -72 -205 -88q-184 -340 -381 -672q231 96 392 274q49 55 57 56q10 0 10 -10q0 -39 -119 -146q-154 -139 -368 -219q-207 -309 -455 -498q-305 -231 -618 -231q-242 0 -406 139 q-174 145 -174 383zM104 -289q0 -205 154 -332q143 -119 352 -118q279 0 535 207q205 166 375 446q-383 -70 -588 -203q-27 -16 -129 -112q-72 -68 -121 -68t-49 37q0 39 41 67q14 10 110 56q170 80 170 231q0 133 -88 209t-225 76q-211 0 -371 -141q-166 -146 -166 -355z M1765 928q0 -199 172 -219q379 711 826 931q-365 -45 -637 -198q-361 -201 -361 -514z" />
<glyph unicode="K" horiz-adv-x="2789" d="M184 463q0 252 217 411q195 143 457 144q182 0 311 -82q152 -98 152 -270q0 -199 -176 -314q-152 -100 -361 -100q-63 0 -166 22q-133 31 -133 72q0 8 19 8q-23 0 -23 -3q0 -8 103 -33q152 -36 209 -35q174 0 315 92q164 104 164 268q0 141 -129 213q-104 59 -256 59 q-233 0 -420 -124q-211 -143 -211 -367q0 -211 166 -318q139 -88 362 -88q313 0 541 158q190 133 377 426l246 387q156 236 356 430q-248 -145 -354 -145q-74 0 -121 47t-47 121q0 14 2 40.5t2 39.5q0 63 -55 63q-80 0 -207 -121q-90 -86 -162 -186q-57 -78 -109 -170 q-33 -59 -43 -59q-4 0 -4 12q0 80 174 297q236 295 428 295q137 0 138 -172v-45q0 -104 69 -105q109 0 387 174q20 14 154 105q61 43 84 43q33 0 33 -21q0 -29 -33 -49q-14 -10 -86 -39q-152 -61 -262 -221q-63 -90 -168 -299q-119 -238 -191 -350q-434 -688 -1128 -688 q-256 0 -424 108q-197 127 -197 369zM2050 791q0 25 41 30q29 2 59 4q121 18 269 154q51 47 185 205.5t228 238.5q258 219 482 219q84 0 143 -40q70 -45 70 -125q0 -43 -28 -73t-71 -30q-31 0 -53 24.5t-22 55.5q0 14 13 48t13 50q0 55 -86 56q-111 0 -241 -119 q-66 -59 -293 -315q-135 -152 -258 -234q-139 -94 -320 -137q244 -80 244 -334q0 -57 -21.5 -169t-21.5 -169q0 -86 69 -86q72 0 259 197q86 90 90 90q14 0 14 -10q0 -14 -92 -113q-199 -211 -295 -211q-88 0 -146 102q-47 86 -47 183q0 57 20.5 169.5t20.5 170.5 q0 61 -40 102t-101 41h-27q-16 -2 -22 -2q-35 0 -35 27z" />
<glyph unicode="L" horiz-adv-x="1824" d="M166 145q0 143 237 144q143 0 447 -86q72 53 170 213q72 115 223 403q-121 -20 -250 -20q-223 0 -381 100q-186 119 -186 330q0 236 195 373q172 121 415 120q373 0 645 -297q274 240 414 240q51 0 85 -31.5t34 -83.5q0 -197 -297 -415q-205 -150 -469 -263 q-227 -461 -518 -690q260 -98 452 -98q209 0 449 250q23 23 35 22q4 -2 4 -8q0 -29 -94 -117q-262 -244 -467 -243q-139 0 -478 127q-213 -121 -393 -121q-98 0 -172 29q-100 38 -100 122zM215 141q0 -61 88 -94q63 -25 137 -24q172 0 328 114q-256 96 -389 96 q-164 0 -164 -92zM477 1268q0 -190 207 -291q164 -78 375 -78q102 0 237 23q176 291 359 477q-256 293 -625 293q-215 0 -371 -103q-182 -118 -182 -321zM1493 967q229 84 418 213q268 182 268 356q0 90 -92 90q-80 0 -197 -98q-88 -72 -159 -162q84 -115 84 -143 q0 -14 -9 -15q-10 0 -32 35q-37 57 -66 94q-133 -190 -215 -370z" />
<glyph unicode="M" horiz-adv-x="2992" d="M229 471q0 233 195 381q176 135 418 135q180 0 305 -86q143 -100 143 -272q0 -180 -157 -295q-141 -102 -328 -103q-70 0 -189 35q-147 41 -147 92q0 14 8 15q35 0 82 -33q59 -43 80 -49q86 -29 176 -29q158 0 283 86q143 96 143 246q0 145 -129 223q-109 66 -262 66 q-227 0 -387 -103q-190 -119 -191 -334q0 -197 160 -313q145 -106 348 -106q268 0 535 229q123 106 344 350q293 324 422 453q274 274 506 452q188 145 229 146q6 0 6 -8q0 -20 -24 -47l-64 -68q-328 -354 -696 -1088q-109 -217 -109 -276q0 -16 8 -16q41 0 240 241 q377 457 565 668q145 164 305 323q266 268 328 269q4 0 4 -6q0 -18 -76 -133l-217 -332q-168 -266 -305 -525q-211 -403 -211 -555q0 -55 56 -55q113 0 303 211q66 72 71 72q14 0 15 -10q0 -23 -88 -113q-211 -215 -340 -215q-76 0 -117 59q-39 53 -39 131q0 358 770 1301 q-225 -180 -791 -860l-382 -457q-141 -156 -209 -156q-70 0 -70 117q0 184 225 539q254 399 715 874q-393 -291 -801 -735l-334 -365q-160 -170 -249 -241q-258 -207 -519 -207q-233 0 -389 119q-168 131 -168 358z" />
<glyph unicode="N" horiz-adv-x="2582" d="M109 465q0 264 206 416q184 137 459 137q197 0 322 -78q147 -92 147 -278t-172 -302q-154 -102 -348 -102q-49 0 -125 12q-102 16 -102 43q6 8 16 9q33 0 100.5 -15.5t102.5 -15.5q178 0 317 82q166 98 166 264q0 147 -131 223q-106 61 -264 62q-242 0 -428 -129 q-209 -145 -209 -379q0 -201 194 -308q158 -86 375 -86q672 0 1213 953q225 397 299 514q109 174 141 174q8 0 8 -16q0 29 -4 29q-5 0 -16 -50q-16 -78 -35 -209q-20 -137 -21 -192v-52q2 -49 2 -86v-174q0 -373 -73 -698q758 1448 1138 1448q104 0 105 -90 q0 -37 -26.5 -66.5t-63.5 -29.5q-47 0 -77 51t-50 51q-106 0 -346 -315q-139 -184 -279 -408q-178 -291 -369 -645q-119 -221 -137 -221q-16 0 -16 26q0 -23 3 -22q6 0 22 97q26 144 26 206q0 86 -21.5 254t-21.5 254q0 233 96 608q-37 -61 -221 -389q-133 -236 -219 -363 q-201 -295 -451 -466q-295 -205 -608 -205q-252 0 -424 108q-200 129 -200 369z" />
<glyph unicode="O" horiz-adv-x="1648" d="M256 891q0 274 206 476t482 202q92 0 203 -33q289 162 475 162q139 0 223 -68q90 -74 90 -209q0 -90 -24 -90q-12 0 -13 25q0 10 2.5 28.5t2.5 28.5q0 246 -269 246q-205 0 -411 -154q78 -49 114 -80q104 47 174 48q156 0 236 -111q68 -96 68 -260q0 -383 -359 -770 q-319 -346 -649 -346q-186 0 -289 143q-92 125 -92 320q0 299 221 606q182 254 469 456q-98 25 -166 25q-223 0 -393 -128t-242 -343q-20 -59 -30 -143q-8 -59 -21 -60q-8 0 -8 29zM571 367q0 -147 68 -238q74 -100 217 -100q154 0 332 116q145 94 268 236q139 160 227 342 q100 213 101 395q0 129 -62 219q-70 102 -194 103q-76 0 -162 -41q170 -188 170 -410q0 -193 -125 -354q-141 -182 -317 -182q-115 0 -179 79q-59 74 -59 191q0 193 143 393q123 174 306 293q-51 41 -119 76q-254 -197 -426 -496q-189 -325 -189 -622zM891 721 q0 -86 47 -148q49 -68 133 -67q168 0 283 205q98 174 98 354q0 205 -123 321q-176 -106 -301 -282q-137 -195 -137 -383z" />
<glyph unicode="P" horiz-adv-x="1966" d="M309 184q0 53 30 93t81 40q41 0 69.5 -29.5t28.5 -70.5q0 -18 -14.5 -53t-14.5 -51q0 -47 58 -72q43 -18 96 -18q195 0 377 192q156 164 371 551q147 266 266 424q166 219 375 369q-154 68 -351 67q-172 0 -319 -31q96 -104 96 -274q0 -293 -219 -518q-92 -94 -215 -156 q-133 -68 -254 -67q-127 0 -200.5 72.5t-73.5 199.5q0 135 102 293q84 131 209 233q211 174 459 234q-106 74 -248 74q-213 0 -400 -144q-174 -135 -262 -340q-25 -55 -32 -55q-10 0 -11 16q0 90 127 248q248 309 588 309q170 0 297 -96q178 37 352 37q209 0 402 -68 q104 68 127 68q12 0 12 -8q0 -10 -27 -27q-53 -33 -75 -49q256 -162 256 -401q0 -178 -139.5 -311.5t-317.5 -133.5q-53 0 -129 21q-100 25 -100 63q0 10 8 10l49 -20q49 -20 108 -21q164 0 273 160q94 141 94 313q0 184 -154 281q-88 -72 -182 -217q-47 -72 -174 -309 q-123 -229 -211 -373q-166 -270 -373 -440q-258 -213 -524 -213q-109 0 -190 45q-101 53 -101 153zM537 866q0 -102 57 -161.5t160 -59.5q193 0 395 227q223 252 223 517q0 125 -78 196q-260 -55 -473 -235q-284 -242 -284 -484z" />
<glyph unicode="Q" horiz-adv-x="1847" d="M197 147q0 76 88 115q63 29 151 29q172 0 508 -107q207 90 406 287q459 453 458 885q0 129 -84 205.5t-215 76.5q-53 0 -127 -14q111 -104 111 -291q0 -283 -205 -508q-86 -96 -217 -163q-141 -76 -258 -76q-125 0 -193.5 70.5t-68.5 195.5q0 262 252 494 q207 190 491 288q-90 68 -227 68q-188 0 -354 -113q-154 -102 -256 -276q-31 -51 -62 -127q-18 -45 -30 -45q-8 0 -9 18q0 23 23 78q31 76 86 154q109 154 260 243q166 98 342 99q152 0 289 -84q90 25 178 24q195 0 306.5 -117.5t111.5 -314.5q0 -590 -957 -1075 q260 -100 385 -100q180 0 400 196q18 16 65 68q27 29 39 28q10 0 10 -8q0 -31 -106 -123q-274 -240 -526 -239q-133 0 -412 100q-209 -90 -385 -90q-96 0 -168 29q-100 38 -100 120zM240 145q0 -66 90 -96q63 -20 143 -20q168 0 332 82q-279 121 -440 120q-125 0 -125 -86z M588 862q0 -96 54 -157.5t149 -61.5q211 0 421 264q190 240 191 482q0 145 -80 221q-274 -90 -483 -275q-252 -223 -252 -473z" />
<glyph unicode="R" horiz-adv-x="2326" d="M283 1161q0 43 53 139q43 76 84 130q106 137 261 219t325 82q190 0 309 -93q156 35 293 35q262 0 450 -80q102 68 123 68q14 0 14 -8q0 -10 -26 -27q-41 -27 -74 -49q229 -115 229 -326q0 -174 -165 -307q-147 -119 -330 -141q182 -102 182 -279q0 -74 -38 -214t-38 -193 q0 -72 54 -72q82 0 241 172q106 115 103 115q14 0 14 -8q0 -25 -86 -121q-186 -207 -297 -207q-80 0 -127 90q-41 76 -41 162q0 70 35 204t35 201q0 45 -19 78q-23 41 -63 41q-14 0 -45 -3t-47 -3q-70 0 -70 43q0 45 68 45q23 0 64.5 -10t62.5 -10q106 0 221 133 q127 147 127 333q0 158 -121 238q-88 -72 -182 -217q-47 -72 -174 -309q-123 -229 -211 -373q-166 -270 -375 -442q-258 -211 -524 -211q-109 0 -189 45q-100 53 -100 153q0 53 27.5 93t78.5 40q41 0 71 -29.5t30 -70.5q0 -18 -13.5 -53t-13.5 -51q0 -47 57 -72 q43 -18 97 -18q197 0 378 192q154 164 369 551q152 274 264 424q166 219 375 369q-147 82 -407 81q-139 0 -261 -32q88 -121 89 -281q0 -293 -222 -522q-86 -90 -209 -150q-131 -63 -247 -63q-133 0 -208 70.5t-75 201.5q0 207 207 422q225 236 579 338q-109 74 -274 74 q-162 0 -326 -103q-152 -94 -249 -237q-45 -66 -78 -152q-23 -57 -29 -61q-16 0 -16 16zM508 864q0 -100 55 -157.5t154 -57.5q229 0 436 256q197 244 197 477q0 139 -68 213q-281 -74 -506 -256q-268 -219 -268 -475z" />
<glyph unicode="S" horiz-adv-x="1837" d="M195 469q0 242 204 395q188 139 439 140q184 0 305 -82q139 -94 139 -271q0 -186 -147 -295q-133 -98 -326 -98q-63 0 -168 21q-135 25 -135 61q2 6 4 6q35 0 134 -28.5t157 -28.5q176 0 301 86q145 96 145 264q0 145 -123 221q-102 61 -258 62q-229 0 -407 -134 q-199 -145 -199 -366q0 -203 176 -309q147 -90 363 -90q358 0 600 282q166 195 325 608q-57 -8 -118 -8q-213 0 -371 103q-184 121 -184 321q0 188 161 299q141 96 340 96q338 0 551 -262q233 195 371 195q121 0 121 -127q0 -145 -174 -307q-199 -184 -510 -279 q-174 -434 -406 -665q-291 -291 -698 -291q-244 0 -416 114q-196 134 -196 367zM1114 1360q0 -184 205 -297q170 -96 369 -96q10 0 32 2h31q127 260 330 469q-199 254 -529 254q-166 0 -292 -80q-146 -94 -146 -252zM1935 1001q279 66 465 244q162 156 162 289q0 92 -90 92 q-72 0 -176 -84q-78 -61 -144 -139q76 -96 76 -137q0 -10 -10 -11q-10 0 -31 35q-31 55 -55 84q-111 -146 -197 -373z" />
<glyph unicode="T" horiz-adv-x="2113" d="M233 475q0 250 207 402q188 137 447 137q178 0 301 -82q143 -94 143 -264q0 -195 -147 -306q-133 -100 -336 -100q-59 0 -166 23q-135 29 -135 65q0 10 12 10q-22 0 -22 -3q0 -7 102 -29q150 -33 203 -33q180 0 309 90q145 102 145 277q0 141 -127 212q-100 57 -254 58 q-225 0 -411 -133q-207 -147 -207 -367q0 -217 203 -326q162 -88 399 -88q485 0 799 388q94 117 241 362q152 254 238 365q129 164 268 268q113 84 160 84q16 0 16 -8q0 -4 -36 -29q-127 -86 -246 -285q-33 -55 -197 -354q-111 -203 -194 -313q-385 -508 -1053 -508 q-266 0 -444 108q-218 131 -218 379zM1206 1165q0 252 363 389q164 61 413 84q188 16 519 17h245q76 0 226 10q131 9 131 10h-2q27 0 26 -8q0 -39 -94 -84q-117 -55 -280 -55q-127 0 -383 25.5t-385 25.5q-250 0 -461 -84q-285 -113 -285 -326q0 -94 67.5 -149t163.5 -55 q317 0 572 307q16 20 61 86q25 35 37 35q4 -2 4 -15q0 -43 -106 -196q-199 -287 -502 -287q-139 0 -229 63q-101 72 -101 207z" />
<glyph unicode="U" horiz-adv-x="2019" d="M143 864q0 227 164 461q115 164 273 260q172 106 356 107q106 0 207 -43q94 16 157 16q150 0 230 -80t80 -229q0 -115 -64 -252q-45 -100 -170 -291l-268 -414q-147 -227 -147 -299q0 -66 71 -65q104 0 311 192q250 231 504 629l500 778l197 11l-791 -1235 q-141 -221 -141 -314q0 -53 47 -53q88 0 264 180q23 23 74 80q27 29 33 29q14 0 14 -10q0 -18 -121 -144q-176 -182 -278 -182q-109 0 -109 170q0 129 86 311q-131 -160 -276 -293q-217 -197 -336 -196q-131 0 -131 180q0 186 229 532l297 449q123 186 123 295 q0 190 -246 190q-10 0 -102 -10q100 -80 100 -246q0 -252 -209 -456q-182 -178 -387 -179q-111 0 -176.5 63.5t-65.5 174.5q0 217 226 412q182 160 424 239q-88 33 -162 33q-211 0 -408 -158q-176 -141 -272 -348q-55 -121 -74 -246q-12 -88 -22 -88q-11 0 -11 39zM481 995 q0 -178 170 -178q104 0 223 74q104 63 179 156q160 201 159 393q0 113 -84 172q-238 -74 -419 -221q-228 -185 -228 -396z" />
<glyph unicode="V" horiz-adv-x="1589" d="M233 1055q0 233 193 415q106 100 244 162q147 66 284 66q178 0 269 -201l51 -115q27 -49 67 -59q229 371 416 371q96 0 96 -103q0 -119 -141 -215q-117 -80 -250 -102q-121 -604 -532 -1190q322 244 854 905q299 371 436 512q172 176 260 176q35 0 60.5 -25.5t25.5 -60.5 q0 -37 -26.5 -63.5t-63.5 -26.5q-25 0 -62.5 19.5t-48.5 19.5q-78 0 -294 -260l-551 -664q-250 -293 -500 -507q-180 -154 -215 -154q-18 0 -19 22q0 18 52 93q74 104 123 209q78 160 182 499.5t180 497.5q-141 2 -242 139q-78 133 -86 144q-61 86 -129 86q-182 0 -368 -154 q-231 -190 -232 -424q0 -88 49 -145q51 -63 138 -64q135 0 260 111q104 94 170 233q27 57 53 150q16 57 29 57q14 0 14 -55q0 -213 -127 -389q-139 -195 -344 -195q-127 0 -201 79t-74 206zM1470 1311q115 16 224 90q127 86 127 190q0 25 -16.5 46.5t-39.5 21.5 q-96 0 -188 -131q-62 -92 -107 -217z" />
<glyph unicode="W" horiz-adv-x="2193" d="M227 1055q0 233 195 415q242 227 526 228q176 0 266 -201q45 -100 54 -115q29 -49 69 -59q74 135 170 236q129 135 244 135q100 0 100 -103q0 -117 -143 -213q-119 -80 -250 -104q-139 -623 -518 -1163q246 217 479 510q127 164 381 489q49 61 176 195q119 123 172 196 q35 53 72 107q55 74 90 73q29 0 29 -39q0 -29 -37 -67q-76 -78 -80 -84q-78 -98 -158 -365q-72 -242 -145 -403q-141 -313 -385 -639q322 244 854 905q307 381 434 512q172 176 260 176q35 0 60.5 -25.5t25.5 -60.5q0 -37 -26.5 -63.5t-63.5 -26.5q-25 0 -61.5 19.5 t-46.5 19.5q-80 0 -297 -258q-182 -223 -553 -666q-246 -289 -500 -507q-178 -154 -213 -154q-18 0 -18 22q0 20 55 95q74 98 123 200q41 84 176 451q125 342 256 571q-143 -154 -399.5 -490.5t-401.5 -490.5q-334 -356 -399 -356q-18 0 -19 20q0 18 51 93q72 104 123 209 q80 162 183 497q104 344 178 500q-145 2 -240 139q-31 51 -94 154q-47 76 -123 76q-180 0 -366 -154q-229 -188 -230 -424q0 -86 49 -147.5t133 -61.5q135 0 258 111q102 92 172 233q29 57 54 150q14 57 28 57t15 -47q0 -217 -123 -393q-139 -199 -346 -199q-125 0 -200 80 t-75 205zM1470 1311q115 16 224 90q127 86 127 190q0 25 -16.5 46.5t-39.5 21.5q-96 0 -188 -133q-64 -92 -107 -215z" />
<glyph unicode="X" horiz-adv-x="1708" d="M170 887q0 166 133 379q123 201 270 303q178 125 365 125q113 0 211 -56q70 20 133 21q150 0 229 -100q74 -94 74 -248q0 -31 -6 -86q150 160 315 274q221 156 379 156q152 0 152 -154q0 -236 -375 -426q-184 -94 -571 -213q-254 -430 -254 -700q0 -135 98 -135 q104 0 309 215q14 14 58 65q20 25 28 25q14 0 15 -10q0 -16 -91 -113q-104 -111 -169 -160q-82 -61 -162 -61q-92 0 -137 96q-33 72 -33 176q0 35 12 135q-156 -162 -330 -270q-219 -137 -397 -137q-90 0 -154 43q-72 51 -71 137q0 381 1099 680q195 324 195 541 q0 240 -217 239q-39 0 -100 -10q90 -70 90 -209q0 -244 -189 -432q-74 -74 -172 -123q-109 -55 -202 -55q-184 0 -185 188q0 205 197 397q168 166 385 242q-61 35 -150 35q-229 0 -422 -166q-172 -150 -266 -379q-41 -96 -59 -190q-12 -61 -23 -62q-12 0 -12 23zM299 168 q0 -141 150 -141q215 0 485 297q178 197 346 481q-981 -252 -981 -637zM557 997q0 -139 129 -139q170 0 353.5 199.5t183.5 372.5q0 106 -88 176q-209 -74 -377 -230q-201 -186 -201 -379zM1497 903q360 109 539 199q354 178 354 395q0 123 -109 123q-133 0 -335 -174 q-236 -201 -449 -543z" />
<glyph unicode="Y" horiz-adv-x="2205" d="M207 164q0 250 205 411q190 152 446 152q184 0 303 -82q139 -94 139 -270q0 -188 -159 -303q-143 -104 -338 -105q-166 0 -166 45q0 6 14 6q25 0 75 -8t77 -8q172 0 301 90q147 100 147 264q0 143 -114 217q-98 63 -248 64q-217 0 -410 -137q-211 -150 -211 -359 q0 -205 191 -317q160 -92 379 -92q410 0 692 272q246 238 538 842q-385 -401 -577 -402q-127 0 -127 164q0 152 125 346l190 283q86 131 86 223q0 100 -82 150q-66 41 -172 41q-264 0 -514 -195q-86 -68 -149 -153q-78 -106 -78 -195q0 -164 180 -164q154 0 301 115 q135 104 203 254q35 76 57 166q14 57 25 57q14 0 14 -47q0 -131 -69 -281q-160 -344 -492 -344q-109 0 -178 54q-80 59 -80 163q0 236 281 426q254 174 501 174q152 0 239 -84t87 -235q0 -125 -70 -244l-153 -246q-170 -279 -170 -325q0 -57 61 -58q141 0 336 183 q162 152 441 514q184 242 395 395q164 121 219 121q31 0 31 -21q0 -23 -54 -47l-73 -28q-190 -84 -342 -349q-63 -109 -244 -464q-150 -293 -254 -455q-416 -639 -1108 -639q-256 0 -432 102q-215 125 -215 363z" />
<glyph unicode="Z" horiz-adv-x="1916" d="M190 147q0 219 279 355q227 111 471 110q96 0 186 -16l273 330q154 182 268 305q-145 41 -215 176l-78 152q-51 66 -151 65q-188 0 -385 -164q-219 -182 -220 -393q0 -92 52 -154q55 -68 145 -67q135 0 262 127q102 102 168 250q25 53 45 131q12 45 25 45q10 0 10 -27 q0 -131 -67.5 -278.5t-167.5 -225.5q-113 -88 -242 -88q-121 0 -194.5 76t-73.5 197q0 250 251 444q229 176 451 176q127 0 199 -53q61 -45 129 -164l49 -88q31 -45 67 -70q350 358 568 359q131 0 131 -117q0 -168 -223 -262q-172 -70 -367 -70q-51 0 -92 2l-553 -639 q201 -76 252 -254q14 -63 47 -188q20 -76 74 -76q94 0 272 187q88 92 92 92q10 0 10 -10q0 -31 -125 -154q-174 -172 -317 -172q-100 0 -158 115q-31 61 -61 200q-35 162 -135 207q-492 -530 -776 -530q-78 0 -126.5 41.5t-48.5 117.5zM225 150q0 -127 142 -127 q287 0 708 514q-78 20 -188 20q-219 0 -416 -94q-246 -116 -246 -313zM1798 1272q66 -16 139 -17q145 0 285 68q168 84 168 215q0 84 -94 84q-195 0 -498 -350z" />
<glyph unicode="[" horiz-adv-x="757" d="M-109 -129q0 14 43 84l1016 1665q41 68 131 68h252q45 0 45 -23q0 -25 -45 -25h-252l-1083 -1751h262q41 0 41 -20q0 -27 -43 -27h-309q-58 0 -58 29z" />
<glyph unicode="\" horiz-adv-x="692" d="M379 1292h108l84 -1501l-24 -8z" />
<glyph unicode="]" horiz-adv-x="757" d="M-379 -133q0 23 45 22h252l1083 1751h-262q-41 0 -41 21q0 27 41 27h312q57 0 57 -29q0 -14 -43 -84l-1016 -1663q-43 -70 -131 -70h-252q-45 0 -45 25z" />
<glyph unicode="^" horiz-adv-x="2340" d="M471 1026l610 645h174l611 -645h-97l-602 530l-606 -530h-90z" />
<glyph unicode="_" horiz-adv-x="1169" d="M0 -461h1169v-92h-1169v92z" />
<glyph unicode="`" horiz-adv-x="1169" d="M596 1001q0 96 76 97q68 0 67 -82v-68q0 -88 109 -243q0 -16 -17 -17q-51 0 -143 123.5t-92 189.5z" />
<glyph unicode="a" horiz-adv-x="921" d="M-18 299q0 20 110 131q229 229 420 229q125 0 125 -106q0 -25 -10 -51l96 139l156 10l-258 -405q-86 -135 -86 -183q0 -37 34 -36q57 0 252 198q104 106 109 107q14 0 14 -8q0 -23 -119 -142q-106 -104 -151 -139q-72 -55 -131 -55q-96 0 -97 116q0 16 13 91 q-164 -207 -295 -207q-76 0 -111 88q-25 63 -24 151q0 55 16 111q-33 -47 -49 -47q-14 0 -14 8zM127 102q0 -72 55 -71q84 0 217 147q201 221 201 375q0 31 -23.5 51.5t-54.5 20.5q-131 0 -268 -199q-127 -185 -127 -324z" />
<glyph unicode="b" horiz-adv-x="790" d="M-16 299q14 18 120 152q154 193 304 446l299 512l161 21l-583 -990q-188 -319 -189 -372q0 -45 70 -45q141 0 246 129q92 115 114 264q6 59 21 176q14 68 74 67q68 0 67 -96q0 -154 -147 -350q41 -6 39 -6q88 0 190 102l33 33q6 8 16 8t10 -12q0 -8 -4 -12l-24 -31 q-96 -121 -240 -121q-33 0 -53 4q-178 -190 -361 -190q-135 0 -135 149q0 76 90 266l-55 -63q-43 -49 -51 -49q-12 0 -12 8z" />
<glyph unicode="c" horiz-adv-x="657" d="M-18 301q0 12 94 115q225 244 422 243q154 0 153 -120q0 -43 -23.5 -76t-64.5 -33q-70 0 -69 62q0 27 36.5 52t36.5 44q0 39 -49 39q-100 0 -229 -156q-141 -170 -142 -340q0 -111 97 -111q109 0 286 175q49 47 97 100q33 37 41 37q14 0 14 -10q0 -18 -121 -142 q-188 -193 -332 -192q-94 0 -149 82q-47 72 -47 172q0 45 14 96q-37 -45 -51 -45t-14 8z" />
<glyph unicode="d" horiz-adv-x="921" d="M-18 299q0 20 110 131q229 229 420 229q125 0 125 -106q0 -25 -10 -51l520 921l151 7l-639 -1108q-115 -199 -114 -256q0 -33 39 -33q51 0 254 209q88 90 92 90q14 0 14 -8q0 -23 -119 -142q-106 -104 -151 -139q-72 -55 -131 -55q-96 0 -97 116q0 16 13 91 q-164 -207 -295 -207q-76 0 -111 88q-25 63 -24 151q0 55 16 111q-33 -47 -49 -47q-14 0 -14 8zM127 102q0 -72 55 -71q84 0 217 147q201 221 201 375q0 31 -23.5 51.5t-54.5 20.5q-131 0 -268 -199q-127 -185 -127 -324z" />
<glyph unicode="e" horiz-adv-x="657" d="M-16 301q0 14 92 115q223 244 428 243q53 0 91 -27.5t38 -78.5q0 -123 -182 -223q-123 -66 -289 -105q-12 -63 -12 -94q0 -109 94 -108q111 0 286 172q35 35 97 102q31 35 41 35q14 0 14 -10q0 -18 -121 -142q-188 -193 -330 -192q-94 0 -149 82q-49 72 -49 172 q0 49 14 98q-37 -47 -51 -47q-12 0 -12 8zM174 262q123 27 242 113q139 100 139 211q0 47 -43 47q-98 0 -209 -141q-86 -113 -129 -230z" />
<glyph unicode="f" horiz-adv-x="514" d="M-403 -688l372 688q-37 31 -37 66q0 31 20.5 54t51.5 23q10 0 39 -12l238 447q-98 -86 -205 -207q-70 -80 -82 -80q-10 0 -10 8q0 53 366 401q401 764 649 764q45 0 77 -32.5t32 -77.5q0 -242 -717 -764l-274 -557h12q100 0 258 160q45 45 96 102q33 37 41 37 q14 0 15 -10q0 -31 -172 -193q-162 -152 -271 -152h-10l-322 -647zM430 668q299 201 479 424q145 180 146 272q0 68 -62 68q-131 0 -331 -328q-89 -141 -232 -436z" />
<glyph unicode="g" horiz-adv-x="864" d="M-266 -623q0 145 252 338q117 90 372 240l119 258q-190 -225 -313 -225q-76 0 -111 88q-25 63 -24 151q0 55 16 111q-33 -47 -49 -47q-14 0 -14 8q0 20 110 131q229 229 420 229q125 0 125 -106q0 -25 -10 -51l96 139l143 10q-225 -369 -372 -655q156 100 278 231 q92 98 100 105q12 0 13 -10q0 -27 -107 -134q-135 -135 -317 -247q-362 -680 -608 -680q-119 -1 -119 116zM-203 -627q0 -80 68 -80q166 0 467 613q-535 -314 -535 -533zM127 102q0 -72 55 -71q84 0 217 147q201 221 201 375q0 31 -23.5 51.5t-54.5 20.5q-131 0 -268 -199 q-127 -185 -127 -324z" />
<glyph unicode="h" horiz-adv-x="882" d="M-98 -2l338 539l-189 -203q-41 -43 -53 -43q-14 0 -14 8q0 14 63 80q100 102 168 186q121 150 227 332l299 512l154 21l-664 -1131q328 362 428 363q90 0 91 -115q0 -66 -43 -139q-10 -16 -103 -146q-109 -152 -108 -196q0 -43 39 -43q59 0 251 200q104 109 109 109 q10 0 10 -10q0 -20 -112 -138q-190 -197 -263 -196q-111 0 -110 166q0 102 149 288q102 129 103 154q0 29 -27 29q-119 0 -600 -611z" />
<glyph unicode="i" horiz-adv-x="514" d="M-16 299q0 31 297 340l168 12l-232 -366q-115 -182 -115 -219q0 -45 41 -46q80 0 273 205q100 106 108 107q14 0 15 -10q0 -18 -109 -129q-201 -205 -285 -205q-61 0 -96 45q-31 39 -31 102q0 66 54 162q25 43 137 215q-63 -61 -152 -162q-51 -57 -63 -57q-10 0 -10 6z M496 1018q0 37 29.5 71.5t66.5 34.5q63 0 63 -69q0 -37 -28.5 -71t-65.5 -34q-65 0 -65 68z" />
<glyph unicode="j" horiz-adv-x="471" d="M-655 -623q0 145 252 338q117 90 372 240l283 606q-68 -70 -182 -201q-61 -70 -74 -69q-12 0 -12 8q0 16 53 78l229 262l166 12q-160 -340 -330 -655q154 106 279 235q90 94 98 101q14 0 15 -8q0 -27 -103 -129q-133 -135 -319 -254q-360 -680 -609 -680 q-118 -1 -118 116zM-594 -627q0 -80 68 -80q166 0 467 613q-535 -314 -535 -533zM422 1018q0 37 27.5 71.5t64.5 34.5q63 0 64 -69q0 -39 -28 -72t-65 -33q-63 0 -63 68z" />
<glyph unicode="k" horiz-adv-x="905" d="M-98 -2l338 539l-189 -203q-41 -43 -53 -43q-14 0 -14 8q0 14 63 80q100 102 168 186q121 150 227 332l299 512l150 21l-848 -1416zM279 360q0 49 77 50q37 0 72 -21q49 8 164 146q106 127 196 127q92 0 93 -82q0 -76 -68 -76q-35 0 -58.5 48t-35.5 48q-16 0 -45 -49 q-35 -61 -68 -98q-55 -61 -131 -82q94 -61 94 -142q0 -35 -21.5 -95t-21.5 -81q0 -31 33 -30q59 0 264 219q84 90 90 90q14 0 15 -10q0 -23 -113 -138q-193 -197 -270 -196q-61 0 -101 61q-37 53 -36 117q0 33 17 87t17 73q0 6 -4 30q-66 -35 -110 -34q-49 -1 -49 38z" />
<glyph unicode="l" horiz-adv-x="514" d="M-16 299q0 20 53 78l76 82q172 186 202 233l461 717l154 21l-721 -1145q-115 -182 -115 -219q0 -45 41 -46q53 0 121 54q39 31 160 151q6 6 71 78q27 29 37 29q14 0 15 -10q0 -18 -109 -129q-201 -205 -285 -205q-61 0 -96 45q-31 39 -31 102q0 66 52 162q27 51 137 215 q-78 -78 -150 -162q-51 -59 -61 -59q-12 0 -12 8z" />
<glyph unicode="m" horiz-adv-x="1425" d="M-16 299q0 20 53 78l76 82q188 203 276 203q90 0 90 -109q0 -102 -92 -254q285 362 406 363q94 0 94 -99q0 -119 -99 -258q166 186 252 264q100 92 160 93q90 0 90 -115q0 -66 -43 -139q-10 -16 -102 -146q-109 -152 -109 -196q0 -43 39 -43q59 0 252 200 q104 109 109 109q12 0 12 -10q0 -18 -115 -138q-190 -197 -262 -196q-111 0 -110 166q0 102 149 288q102 129 102 154q0 29 -26 29q-111 0 -582 -611l-164 -16l303 457q74 111 74 141q0 29 -33 29q-66 0 -211 -158q-88 -94 -376 -453l-166 -16l307 457q74 111 74 139 q0 31 -33 31q-68 0 -275 -219q-16 -16 -69 -82q-27 -33 -39 -33t-12 8z" />
<glyph unicode="n" horiz-adv-x="1036" d="M-16 299q0 20 53 78l76 82q188 203 276 203q90 0 90 -109q0 -102 -92 -254q317 360 426 360q88 0 88 -112q0 -66 -43 -139q-10 -18 -102 -146q-106 -147 -107 -196q0 -43 37 -43q59 0 252 200q104 109 109 109q14 0 14 -10q0 -12 -90 -111l-25 -27q-182 -197 -262 -196 q-57 0 -88 57q-25 45 -25 109q0 98 150 288q102 131 102 154q0 27 -24 27q-121 0 -602 -609l-164 -16l305 457q74 111 74 139q0 31 -33 31q-68 0 -275 -219q-16 -16 -69 -82q-27 -33 -39 -33t-12 8z" />
<glyph unicode="o" horiz-adv-x="776" d="M-16 301q0 14 96 121q223 244 412 244q76 0 118.5 -47.5t42.5 -122.5q0 -119 -129 -283l37 -6q104 0 195 102l30 35q6 6 19 6q10 0 10 -12q0 -10 -2 -12l-27 -31q-104 -121 -239 -121q-33 0 -53 4q-172 -190 -310 -190q-156 0 -155 243q0 47 18 109q-37 -47 -51 -47 q-12 0 -12 8zM131 111q0 -84 72 -84q92 0 221 139q166 178 166 342q0 117 -88 117q-119 0 -250 -199q-121 -186 -121 -315z" />
<glyph unicode="p" horiz-adv-x="882" d="M-444 -618l684 1155l-189 -203q-41 -43 -53 -43q-14 0 -14 8t141 160q178 193 332 432l135 213l141 12l-502 -817q328 362 428 363q90 0 91 -115q0 -66 -43 -139q-10 -16 -103 -146q-109 -152 -108 -196q0 -43 39 -43q59 0 251 200q104 109 109 109q10 0 10 -10 q0 -20 -112 -138q-190 -197 -263 -196q-111 0 -110 166q0 102 149 288q102 129 103 154q0 29 -27 29q-55 0 -225 -170q-217 -215 -404 -533l-309 -524z" />
<glyph unicode="q" horiz-adv-x="849" d="M-29 -666l488 863q-166 -207 -295 -207q-135 0 -135 239q0 51 18 109q-37 -45 -51 -45t-14 6q0 18 98 121q231 242 432 242q123 0 123 -109q0 -31 -8 -61l96 151l125 8l-551 -981l229 283l150 176q172 203 188 203q10 0 10 -6q0 -18 -100 -133q-195 -223 -270 -318 q-197 -246 -387 -530zM127 102q0 -72 55 -71q84 0 217 147q201 221 201 375q0 31 -23.5 51.5t-54.5 20.5q-131 0 -268 -199q-127 -185 -127 -324z" />
<glyph unicode="r" horiz-adv-x="772" d="M-16 299q0 20 53 78l76 82q188 203 276 203q90 0 90 -101q0 -102 -112 -289q66 61 202 187q76 203 191 203q55 0 55 -37q0 -29 -47 -70q-10 -10 -125 -96q-96 -74 -96 -174q0 -61 59 -62q57 0 119 56l59 55q14 0 15 -10q0 -37 -74 -84t-115 -47q-98 0 -98 90q0 31 31 112 q-135 -115 -346 -379l-164 -16l305 455q74 111 74 139q0 31 -33 31q-68 0 -275 -219q-16 -16 -69 -82q-27 -33 -39 -33t-12 8z" />
<glyph unicode="s" horiz-adv-x="509" d="M-72 111q0 29 21.5 51t50.5 22q49 0 49 -43q0 -12 -14.5 -42.5t-14.5 -47.5q0 -25 35 -24q74 0 150 127q88 150 88 360q0 29 -4 90q-94 -94 -209 -229q-72 -84 -86 -84q-12 0 -12 8q0 16 303 350q41 98 96 99q47 0 47 -46q0 -37 -49 -59q-29 -14 -43 -20q-14 -14 -14 -64 q0 -47 21.5 -139t21.5 -139q0 -74 -31 -138l94 99q84 90 92 90q14 0 15 -10q0 -14 -93 -113q-100 -106 -157 -148q-100 -74 -199 -73q-63 0 -110.5 31t-47.5 92z" />
<glyph unicode="t" horiz-adv-x="514" d="M-16 299q0 25 122 150q150 154 209 243l101 154h-111l19 33h114l142 225l153 12l-149 -237h268l-18 -33h-273l-348 -561q-111 -178 -111 -219q0 -45 41 -46q74 0 273 205q102 106 108 107q14 0 15 -10q0 -18 -109 -129q-201 -205 -285 -205q-61 0 -96 45q-31 39 -31 102 q0 66 54 162q25 43 137 215q-63 -61 -152 -162q-51 -57 -63 -57q-10 0 -10 6z" />
<glyph unicode="u" horiz-adv-x="907" d="M-18 299q0 27 297 340l167 10l-231 -364q-115 -180 -115 -219q0 -43 37 -43q201 0 570 616l157 10l-280 -446q-66 -104 -66 -137q0 -43 37 -43q53 0 252 200q10 10 72 80q25 29 36 29q14 0 15 -8q0 -18 -92 -115q-213 -221 -285 -221q-55 0 -86 55q-25 45 -25 104 q0 33 11 68q-197 -227 -308 -227q-61 0 -95 42t-34 105q0 66 54 162q31 57 137 215q-59 -59 -150 -162q-51 -57 -63 -57t-12 6z" />
<glyph unicode="v" horiz-adv-x="948" d="M-16 299q0 20 53 78l76 82q98 106 153 149q68 53 127 54q102 0 103 -121q0 -84 -90 -219q-133 -201 -134 -240q0 -59 58 -59q127 0 252 129q113 115 153 245q6 18 29 185q10 80 70 80q63 0 63 -76q0 -133 -199 -373q35 -6 39 -6q106 0 191 102l28 35q6 6 23 6q6 0 6 -12 q0 -10 -2 -12l-27 -31q-104 -121 -237 -121q-33 0 -53 4q-203 -188 -353 -188q-123 0 -123 160q0 72 37 141q16 33 88 129q94 129 95 180q0 25 -31 25q-74 0 -275 -222q-25 -29 -71 -84q-25 -29 -37 -28q-12 0 -12 8z" />
<glyph unicode="w" horiz-adv-x="1202" d="M-16 299q0 20 53 78l76 82q82 90 172 180l161 10l-231 -364q-115 -180 -115 -219q0 -43 37 -43q201 0 570 616l157 10l-262 -413q-76 -119 -76 -154q0 -59 60 -59q125 0 250 129q113 115 151 245q2 4 29 185q12 80 71 80q63 0 64 -76q0 -135 -201 -373l43 -6 q98 0 189 102l30 35q4 6 19 6q10 0 10 -12q0 -10 -2 -12l-27 -31q-104 -121 -239 -121q-33 0 -53 4q-201 -188 -351 -188q-125 0 -125 160q0 33 9 65q-197 -227 -308 -227q-61 0 -95 42t-34 105q0 68 52 160q20 37 135 211q-76 -74 -146 -156q-51 -59 -61 -59q-12 0 -12 8z " />
<glyph unicode="x" horiz-adv-x="782" d="M-113 72q0 76 70 75q47 0 61.5 -54t30.5 -54q29 0 96 51q162 123 234 338q31 92 31 152q0 45 -35 45q-66 0 -271 -222q-12 -12 -71 -81q-27 -31 -37 -31q-12 0 -12 8q0 20 53 78l76 82q188 203 274 203q115 0 115 -193q0 -6 -2 -20.5t-2 -20.5q166 233 286 234 q100 0 101 -84q0 -59 -64 -60q-39 0 -60.5 44t-37.5 44q-78 0 -227 -239q-102 -164 -103 -297q0 -47 39 -47q59 0 256 200q18 18 72 80q25 29 33 29q14 0 14 -10q0 -23 -113 -138q-195 -197 -266 -196q-66 0 -100 75q-29 61 -29 134v6q-190 -215 -303 -215q-41 0 -75 22.5 t-34 61.5z" />
<glyph unicode="y" horiz-adv-x="999" d="M-129 -623q0 145 252 338q117 90 373 240l186 356q-268 -305 -393 -305q-47 0 -76 47q-23 41 -23 92q0 76 37 146q16 31 88 129q94 129 95 174q0 31 -35 31q-66 0 -271 -222q-12 -12 -71 -81q-27 -31 -37 -31q-12 0 -12 8q0 20 53 78l76 82q102 111 153 151q70 55 127 56 q100 0 101 -125q0 -80 -97 -226q-129 -195 -129 -229q0 -47 39 -47q59 0 207 145q182 180 348 457l142 10q-211 -346 -371 -655q154 100 276 231q98 104 103 105q10 0 10 -10q0 -29 -104 -134q-133 -133 -318 -247q-360 -680 -610 -680q-119 -1 -119 116zM-66 -627 q0 -80 68 -80q90 0 205 156q102 139 264 457q-188 -109 -324 -223q-213 -181 -213 -310z" />
<glyph unicode="z" horiz-adv-x="772" d="M-86 20q0 53 109 113q262 223 458 373q-100 -29 -151 -29q-80 0 -129 47q-72 -92 -150 -182l-37 -43q-12 -14 -18 -14q-10 0 -12 8v8q0 6 2 10l26 33q47 57 170 215q-12 33 -12 41q0 72 78 72q63 0 63 -51q0 -14 -9 -38t-9 -30q0 -41 74 -41q90 0 155 37q39 23 86 67 q37 37 58 37q33 0 32 -26q0 -29 -28 -49q-6 -6 -82 -48q-215 -152 -406 -315q152 70 195 70q39 0 65.5 -24.5t26.5 -61.5q0 -33 -24.5 -87.5t-24.5 -62.5q0 -27 16 -26q39 0 219 178q31 31 88 96q31 35 39 35q14 0 15 -10q0 -20 -113 -136q-197 -199 -270 -198 q-96 0 -97 131q0 20 10.5 53t10.5 47q0 10 -16 10q-102 0 -226 -96q-33 -27 -88 -94q-37 -45 -63 -45q-31 -1 -31 26z" />
<glyph unicode="{" horiz-adv-x="1169" d="M201 694v64q186 18 252 78q74 68 73 247v254q0 231 99 316q92 80 327 80h13v-56q-176 -2 -237.5 -63.5t-61.5 -237.5v-168q0 -238 -62 -334q-72 -111 -287 -149q215 -37 287 -145q61 -94 62 -336v-168q0 -176 61 -238.5t238 -64.5v-52h-13q-236 0 -327 80q-98 84 -99 316 v254q0 178 -73 247q-68 62 -252 76z" />
<glyph unicode="|" horiz-adv-x="1169" d="M535 -553v2341h102v-2341h-102z" />
<glyph unicode="}" horiz-adv-x="1169" d="M203 -227q176 2 239.5 64.5t63.5 238.5v168q0 240 61 334q70 109 285 147q-213 39 -285 149q-61 96 -61 334v168q0 176 -62.5 237.5t-240.5 63.5v56h12q238 0 330 -78q98 -86 98 -318v-254q0 -180 74 -247q66 -59 252 -78v-64q-184 -14 -252 -76q-74 -70 -74 -247v-254 q0 -229 -100 -316q-92 -80 -328 -80h-12v52z" />
<glyph unicode="~" d="M203 551v104q238 166 442 166q113 0 335 -79.5t327 -79.5q184 0 442 184v-107q-240 -168 -442 -168q-106 0 -329.5 80t-332.5 80q-182 0 -442 -180z" />
<glyph unicode="&#xa8;" horiz-adv-x="1169" d="M498 862q0 41 27.5 71t68.5 30q76 0 76 -78q0 -41 -28 -71t-69 -30q-75 0 -75 78zM879 862q0 41 28.5 71t69.5 30q72 0 72 -78q0 -43 -27 -72t-70 -29q-73 0 -73 78z" />
<glyph unicode="&#xa9;" horiz-adv-x="1923" d="M174 774q0 330 230.5 561.5t560.5 231.5t558 -230.5t228 -562.5q0 -326 -231.5 -557t-556.5 -231q-328 0 -558.5 230t-230.5 558zM262 774q0 -293 205 -499.5t496 -206.5t496.5 207.5t205.5 498.5q0 297 -202.5 504t-497.5 207q-293 0 -498 -209t-205 -502zM494 758 q0 203 120 346q127 154 326 153q66 0 160 -38.5t102 -38.5q68 0 76 69h35v-350h-41q-74 313 -326 313q-295 0 -295 -430q0 -438 316 -438q203 0 327 197l35 -23q-129 -238 -383 -237q-195 0 -323.5 141t-128.5 336z" />
<glyph unicode="&#xaa;" horiz-adv-x="921" d="M-18 299q0 20 110 131q229 229 420 229q125 0 125 -106q0 -25 -10 -51l96 139l156 10l-258 -405q-86 -135 -86 -183q0 -37 34 -36q57 0 252 198q104 106 109 107q14 0 14 -8q0 -23 -119 -142q-106 -104 -151 -139q-72 -55 -131 -55q-96 0 -97 116q0 16 13 91 q-164 -207 -295 -207q-76 0 -111 88q-25 63 -24 151q0 55 16 111q-33 -47 -49 -47q-14 0 -14 8zM127 102q0 -72 55 -71q84 0 217 147q201 221 201 375q0 31 -23.5 51.5t-54.5 20.5q-131 0 -268 -199q-127 -185 -127 -324z" />
<glyph unicode="&#xab;" horiz-adv-x="720" d="M135 354l326 240q23 16 35 16q25 0 24 -20q0 -12 -26 -35l-252 -215l75 -246q8 -25 9 -28q0 -27 -19 -27q-20 0 -39 37zM358 354l326 240q23 16 35 16q20 0 20 -20q0 -16 -22 -35l-256 -215l80 -246q6 -18 6 -28q0 -27 -21 -27q-16 0 -34 37z" />
<glyph unicode="&#xad;" horiz-adv-x="833" d="M131 289l49 102h545l-49 -102h-545z" />
<glyph unicode="&#xae;" horiz-adv-x="1923" d="M174 774q0 330 230.5 561.5t560.5 231.5t558 -230.5t228 -562.5q0 -326 -231.5 -557t-556.5 -231q-328 0 -558.5 230t-230.5 558zM262 774q0 -293 205 -499.5t496 -206.5t496.5 207.5t205.5 498.5q0 297 -202.5 504t-497.5 207q-293 0 -498 -209t-205 -502zM537 334v45 q80 2 110 20q45 25 45 97v585q0 72 -45 97q-33 20 -110 22v43h446q137 0 234 -45q127 -57 126 -180q0 -164 -331 -227q195 -66 239 -246q10 -49 21 -101q20 -68 57 -67q90 0 92 147h41v-10q0 -201 -170 -201q-96 0 -133 62q-29 47 -29 149q-2 82 -12 113q-49 145 -254 145 h-22q-14 -2 -23 -2v-284q0 -72 45 -97q33 -18 113 -20v-45h-440zM819 819q29 -2 78 -2q299 0 299 201q0 98 -78 147q-66 43 -170 43q-129 0 -129 -88v-301z" />
<glyph unicode="&#xb0;" horiz-adv-x="770" d="M72 1343q0 131 92 222.5t223 91.5t221 -91t90 -223q0 -131 -92 -221t-223 -90t-221 90t-90 221zM143 1343q0 -100 72 -171.5t172 -71.5t171 71.5t71 171.5t-71 172t-171 72q-102 0 -173 -71t-71 -173z" />
<glyph unicode="&#xb1;" d="M291 70v92h1368v-92h-1368zM291 831v91h639v405h90v-405h639v-91h-639v-403h-90v403h-639z" />
<glyph unicode="&#xb4;" horiz-adv-x="776" d="M412 741q0 14 63 56q82 53 129 123q2 2 60 133q33 72 84 71q70 0 69 -71q0 -123 -215 -248q-137 -80 -172 -80q-18 0 -18 16z" />
<glyph unicode="&#xb5;" horiz-adv-x="1200" d="M-55 -406q0 43 53 265q84 350 127 557l123 596h135l-125 -592q-10 -49 -10 -103q0 -98 45 -163q53 -76 147 -76q229 0 318 383l127 551h135l-133 -602q-31 -139 -31 -203q0 -109 88 -109q104 0 150 117q16 49 32 96q29 76 52 76q31 0 30 -37q0 -90 -61 -200 q-92 -166 -242 -166q-164 0 -164 198q0 6 2 19v18q-98 -242 -307 -242q-217 0 -252 240l-61 -520q-23 -172 -100 -172q-31 0 -54.5 19t-23.5 50z" />
<glyph unicode="&#x3bc;" horiz-adv-x="1200" d="M-55 -406q0 43 53 265q84 350 127 557l123 596h135l-125 -592q-10 -49 -10 -103q0 -98 45 -163q53 -76 147 -76q229 0 318 383l127 551h135l-133 -602q-31 -139 -31 -203q0 -109 88 -109q104 0 150 117q16 49 32 96q29 76 52 76q31 0 30 -37q0 -90 -61 -200 q-92 -166 -242 -166q-164 0 -164 198q0 6 2 19v18q-98 -242 -307 -242q-217 0 -252 240l-61 -520q-23 -172 -100 -172q-31 0 -54.5 19t-23.5 50z" />
<glyph unicode="&#xb8;" horiz-adv-x="657" d="M-113 -338q0 12 21 12q16 0 115.5 -26.5t160.5 -26.5q59 0 107.5 31t48.5 86q0 92 -127 92q-4 0 -70 -12l-14 47q59 33 133 33q174 0 174 -146q0 -94 -78 -145q-66 -43 -163 -43q-115 0 -220 43q-88 37 -88 55z" />
<glyph unicode="&#xba;" horiz-adv-x="776" d="M-16 301q0 14 96 121q223 244 412 244q76 0 118.5 -47.5t42.5 -122.5q0 -119 -129 -283l37 -6q104 0 195 102l30 35q6 6 19 6q10 0 10 -12q0 -10 -2 -12l-27 -31q-104 -121 -239 -121q-33 0 -53 4q-172 -190 -310 -190q-156 0 -155 243q0 47 18 109q-37 -47 -51 -47 q-12 0 -12 8zM131 111q0 -84 72 -84q92 0 221 139q166 178 166 342q0 117 -88 117q-119 0 -250 -199q-121 -186 -121 -315z" />
<glyph unicode="&#xbb;" horiz-adv-x="720" d="M-27 61q0 12 27 35l252 215l-76 246q-8 25 -8 29q0 25 18 24q23 0 39 -35l133 -278l-325 -242q-29 -16 -35 -16q-25 -1 -25 22zM197 61q0 12 26 35l252 215l-78 246q-6 18 -6 29q0 25 19 24q20 0 36 -35l134 -278l-324 -242q-29 -16 -37 -16q-22 -1 -22 22z" />
<glyph unicode="&#xd3;" horiz-adv-x="1648" d="M256 891q0 274 206 476t482 202q92 0 203 -33q289 162 475 162q139 0 223 -68q90 -74 90 -209q0 -90 -24 -90q-12 0 -13 25q0 10 2.5 28.5t2.5 28.5q0 246 -269 246q-205 0 -411 -154q78 -49 114 -80q104 47 174 48q156 0 236 -111q68 -96 68 -260q0 -383 -359 -770 q-319 -346 -649 -346q-186 0 -289 143q-92 125 -92 320q0 299 221 606q182 254 469 456q-98 25 -166 25q-223 0 -393 -128t-242 -343q-20 -59 -30 -143q-8 -59 -21 -60q-8 0 -8 29zM571 367q0 -147 68 -238q74 -100 217 -100q154 0 332 116q145 94 268 236q139 160 227 342 q100 213 101 395q0 129 -62 219q-70 102 -194 103q-76 0 -162 -41q170 -188 170 -410q0 -193 -125 -354q-141 -182 -317 -182q-115 0 -179 79q-59 74 -59 191q0 193 143 393q123 174 306 293q-51 41 -119 76q-254 -197 -426 -496q-189 -325 -189 -622zM891 721 q0 -86 47 -148q49 -68 133 -67q168 0 283 205q98 174 98 354q0 205 -123 321q-176 -106 -301 -282q-137 -195 -137 -383zM1604 1831q0 12 63 55q82 55 129 123q2 4 59 131q33 72 82 72q72 0 72 -70q0 -119 -217 -248q-135 -80 -170 -79q-18 0 -18 16z" />
<glyph unicode="&#xf3;" horiz-adv-x="776" d="M-16 301q0 14 96 121q223 244 412 244q76 0 118.5 -47.5t42.5 -122.5q0 -119 -129 -283l37 -6q104 0 195 102l30 35q6 6 19 6q10 0 10 -12q0 -10 -2 -12l-27 -31q-104 -121 -239 -121q-33 0 -53 4q-172 -190 -310 -190q-156 0 -155 243q0 47 18 109q-37 -47 -51 -47 q-12 0 -12 8zM131 111q0 -84 72 -84q92 0 221 139q166 178 166 342q0 117 -88 117q-119 0 -250 -199q-121 -186 -121 -315zM436 741q0 12 64 56q78 53 127 123q4 6 61 133q33 72 82 71q70 0 70 -71q0 -123 -215 -248q-137 -80 -170 -80q-19 0 -19 16z" />
<glyph unicode="&#xf7;" d="M291 653v90h1368v-90h-1368zM864 305q0 45 34 80t79 35t77.5 -35t32.5 -80q0 -47 -31.5 -79.5t-78.5 -32.5q-49 0 -81 31.5t-32 80.5zM864 1094q0 47 33 79.5t80 32.5t78.5 -32.5t31.5 -79.5t-31.5 -81t-78.5 -34t-80 34t-33 81z" />
<glyph unicode="&#x104;" horiz-adv-x="2795" d="M342 479q0 236 201 393q184 145 426 146q178 0 307 -80q150 -94 149 -264q0 -197 -151 -309q-135 -102 -338 -103q-117 0 -117 27q0 10 21 8l30 -2q29 -2 58 -2q176 0 305 84q147 96 147 264q0 141 -118 215q-98 61 -248 62q-229 0 -410 -130q-199 -145 -198 -364 q0 -209 196 -318q160 -86 387 -86q455 0 811 322q-297 242 -297 528q0 160 101.5 262.5t261.5 102.5q301 0 483 -330q256 281 424 422q272 227 592 365q-489 -590 -881 -1518q166 10 279 117q39 37 49 37q6 -2 6 -6q0 -43 -92 -103q-111 -72 -258 -84l-60 -121l-104 -14 q-111 -14 -207 -80q-119 -80 -119 -184q0 -119 123 -119q53 0 152.5 42t87.5 42q14 0 14 -16q0 -18 -80 -62q-100 -53 -215 -53q-70 0 -121 39t-51 106q0 100 125 189q88 61 215 102l60 144q-233 23 -457 167q-385 -330 -836 -329q-268 0 -444 108q-209 129 -209 383z M1589 793q0 -242 242 -428q119 106 493 516q-145 285 -397 284q-147 0 -242.5 -111t-95.5 -261zM1862 346q180 -139 438 -164q78 188 78 381q0 160 -37 285q-153 -170 -479 -502zM2365 872q45 -139 45 -303q0 -92 -18 -196q291 623 832 1212q-376 -158 -859 -713z" />
<glyph unicode="&#x105;" horiz-adv-x="921" d="M-18 299q0 20 110 131q229 229 420 229q125 0 125 -106q0 -25 -10 -51l96 139l156 10l-258 -405q-86 -135 -86 -183q0 -37 34 -36q57 0 252 198q104 106 109 107q14 0 14 -8q0 -23 -117 -140q-102 -102 -147 -137q-74 -55 -129 -59q-82 -4 -176 -70q-115 -78 -115 -182 q0 -119 123 -119q53 0 152.5 42t87.5 42q14 0 14 -16q0 -18 -80 -62q-100 -53 -215 -53q-70 0 -121 39t-51 106q0 96 119 183q92 70 205 102q-47 25 -48 104q0 16 13 91q-164 -207 -295 -207q-76 0 -111 88q-25 63 -24 151q0 55 16 111q-33 -47 -49 -47q-14 0 -14 8z M127 102q0 -72 55 -71q84 0 217 147q201 221 201 375q0 31 -23.5 51.5t-54.5 20.5q-131 0 -268 -199q-127 -185 -127 -324z" />
<glyph unicode="&#x106;" horiz-adv-x="1755" d="M295 1266q0 217 176 352q162 123 385 123q322 0 576 -262q352 195 577 194q182 0 182 -155q0 -162 -225 -336q-152 -115 -367 -213q-342 -156 -684 -181q-115 -254 -114 -479q0 -272 229 -291q-8 98 -8 119q0 217 115 402q133 213 338 213q94 0 147 -58.5t53 -152.5 q0 -168 -164 -336q-180 -186 -436 -223q2 -35 21.5 -102.5t19.5 -86.5q0 -10 -14 -10q-37 0 -68 197h-47q-168 0 -266 126q-92 117 -92 289t96 402q-190 39 -305 155q-125 128 -125 314zM348 1315q0 -172 146 -283q123 -94 307 -114q231 336 602 544q-238 246 -537 246 q-195 0 -344 -96q-174 -113 -174 -297zM971 905h45q328 0 653 146q170 76 301 180q186 147 187 280q0 129 -146 129q-215 0 -538 -208q127 -201 126 -224q0 -16 -12 -16q-10 0 -43 59q-49 86 -102 160q-328 -236 -471 -506zM1069 20q199 18 375 166q195 160 194 351 q0 63 -34.5 109t-98.5 46q-186 0 -336 -278q-100 -186 -100 -361v-33zM1749 1831q0 12 63 55q78 53 127 123q6 8 62 131q33 72 82 72q70 0 69 -70q0 -121 -215 -248q-135 -80 -170 -79q-18 0 -18 16z" />
<glyph unicode="&#x107;" horiz-adv-x="657" d="M-18 301q0 12 94 115q225 244 422 243q154 0 153 -120q0 -43 -23.5 -76t-64.5 -33q-70 0 -69 62q0 27 36.5 52t36.5 44q0 39 -49 39q-100 0 -229 -156q-141 -170 -142 -340q0 -111 97 -111q109 0 286 175q49 47 97 100q33 37 41 37q14 0 14 -10q0 -18 -121 -142 q-188 -193 -332 -192q-94 0 -149 82q-47 72 -47 172q0 45 14 96q-37 -45 -51 -45t-14 8zM432 741q0 12 64 56q80 53 129 123q4 6 61 133q33 72 82 71q70 0 70 -71q0 -123 -215 -248q-137 -80 -170 -80q-21 0 -21 16z" />
<glyph unicode="&#x118;" horiz-adv-x="1396" d="M264 1362q0 174 150 278q131 92 313 93q231 0 418 -148q225 100 379 101q154 0 153 -111q0 -111 -186 -258q-211 -166 -530 -258q16 -53 51 -70q25 -12 86 -12q10 0 32.5 2t32.5 2q63 0 64 -37q0 -37 -58 -37q-27 0 -74.5 12.5t-68.5 12.5q-133 0 -305 -141 q-240 -197 -240 -482q0 -109 56 -184q61 -84 165 -94v32q-2 49 -2 37q0 229 103 418q125 225 338 225q84 0 136 -52t52 -136q0 -428 -579 -573q2 -27 20 -99q16 -63 16 -96q0 -14 -6 -16q-29 0 -65 198q-219 -82 -219 -233q0 -119 125 -119q53 0 151 42t86 42q14 0 14 -16 q0 -18 -79 -62q-100 -53 -215 -53q-70 0 -120 39t-50 106q0 168 282 273q-168 2 -270.5 89t-102.5 253q0 246 211 420q170 141 439 211q-68 33 -99 81q-80 -12 -149 -12q-182 0 -305 74q-150 88 -150 258zM328 1411q0 -139 143 -227q123 -76 270 -76q-14 0 84 6 q-12 43 -12 76q0 203 299 373q-174 137 -385 137q-150 0 -264 -68q-135 -82 -135 -221zM748 29h22q150 0 293 108q98 76 162 178q72 115 71 228q0 156 -129 155q-170 0 -303 -231q-117 -203 -116 -385v-53zM952 1124q299 53 508 207q180 133 180 244q0 80 -104 80 q-133 0 -322 -133q96 -102 97 -136q0 -10 -4 -10q-12 0 -78 78q-23 27 -39 43q-238 -143 -238 -369v-4z" />
<glyph unicode="&#x119;" horiz-adv-x="657" d="M-117 -285q0 164 303 279q-76 20 -116 96q-37 68 -37 152q0 49 14 98q-37 -47 -51 -47q-12 0 -12 8q0 14 92 115q223 244 428 243q53 0 91 -27.5t38 -78.5q0 -123 -182 -223q-123 -66 -289 -105q-12 -63 -12 -94q0 -109 94 -108q111 0 286 172q35 35 97 102q31 35 41 35 q14 0 14 -10q0 -16 -121 -142q-104 -109 -188 -151q-37 -18 -135 -43q-86 -23 -158 -70q-109 -70 -109 -180q0 -119 125 -119q53 0 151.5 42t86.5 42q14 0 14 -16q0 -18 -80 -62q-100 -53 -215 -53q-70 0 -120 38.5t-50 106.5zM174 262q123 27 242 113q139 100 139 211 q0 47 -43 47q-98 0 -209 -141q-86 -113 -129 -230z" />
<glyph unicode="&#x141;" horiz-adv-x="1742" d="M84 145q0 143 238 144q143 0 446 -86q123 88 365 569l-263 -119l35 66l258 115q221 397 475 630q219 201 365 201q127 0 127 -127q0 -55 -64 -170q-68 -123 -114 -123q-12 0 -13 6q0 -4 78 104.5t78 174.5q0 96 -86 96q-168 0 -377 -287q-139 -190 -252 -432l525 234 l-37 -66l-514 -227q-197 -418 -506 -666q260 -98 452 -98q195 0 398 197q78 76 88 75q4 -2 4 -8q0 -31 -92 -117q-262 -244 -471 -243q-143 0 -477 127q-213 -121 -394 -121q-98 0 -172 29q-100 38 -100 122zM133 141q0 -61 88 -94q63 -25 137 -24q172 0 328 114 q-256 96 -389 96q-164 0 -164 -92z" />
<glyph unicode="&#x142;" horiz-adv-x="514" d="M-16 299q0 20 53 78l76 82q172 186 202 233l326 506q-111 -12 -139 -102q-23 -66 -29 -70q-6 -6 -14 10q-4 6 -4 33q0 152 98 186q45 16 133 17l86 141l156 17l-99 -154q27 2 62 14q25 8 45 78q18 63 47 64q6 6 14 -11q8 -25 9 -55q0 -109 -107 -149q-43 -16 -117 -17 l-573 -915q-115 -182 -115 -219q0 -45 41 -46q53 0 121 54q39 31 160 151q6 6 71 78q27 29 37 29q14 0 15 -10q0 -18 -109 -129q-201 -205 -285 -205q-61 0 -96 45q-31 39 -31 102q0 66 52 162q27 51 137 215q-78 -78 -150 -162q-51 -59 -61 -59q-12 0 -12 8z" />
<glyph unicode="&#x143;" horiz-adv-x="2582" d="M109 465q0 264 206 416q184 137 459 137q197 0 322 -78q147 -92 147 -278t-172 -302q-154 -102 -348 -102q-49 0 -125 12q-102 16 -102 43q6 8 16 9q33 0 100.5 -15.5t102.5 -15.5q178 0 317 82q166 98 166 264q0 147 -131 223q-106 61 -264 62q-242 0 -428 -129 q-209 -145 -209 -379q0 -201 194 -308q158 -86 375 -86q672 0 1213 953q225 397 299 514q109 174 141 174q8 0 8 -16q0 68 -20 -21q-16 -78 -35 -209q-20 -137 -21 -192v-52q2 -49 2 -86v-174q0 -373 -73 -698q758 1448 1138 1448q104 0 105 -90q0 -37 -26.5 -66.5 t-63.5 -29.5q-47 0 -77 51t-50 51q-106 0 -346 -315q-139 -184 -279 -408q-178 -291 -369 -645q-119 -221 -137 -221q-16 0 -16 26q0 -70 25.5 74.5t25.5 206.5q0 86 -21.5 254t-21.5 254q0 233 96 608q-37 -61 -221 -389q-133 -236 -219 -363q-201 -295 -451 -466 q-295 -205 -608 -205q-252 0 -424 108q-200 129 -200 369zM2771 1831q0 12 63 55q80 53 129 123q2 2 60 131q33 72 84 72q70 0 69 -70q0 -121 -215 -248q-135 -80 -172 -79q-18 0 -18 16z" />
<glyph unicode="&#x144;" horiz-adv-x="1036" d="M-16 299q0 20 53 78l76 82q188 203 276 203q90 0 90 -109q0 -102 -92 -254q317 360 426 360q88 0 88 -112q0 -66 -43 -139q-10 -18 -102 -146q-106 -147 -107 -196q0 -43 37 -43q59 0 252 200q104 109 109 109q14 0 14 -10q0 -12 -90 -111l-25 -27q-182 -197 -262 -196 q-57 0 -88 57q-25 45 -25 109q0 98 150 288q102 131 102 154q0 27 -24 27q-121 0 -602 -609l-164 -16l305 457q74 111 74 139q0 31 -33 31q-68 0 -275 -219q-16 -16 -69 -82q-27 -33 -39 -33t-12 8zM530 741q0 12 64 56q80 53 129 123q4 6 61 133q33 72 82 71q70 0 70 -71 q0 -123 -215 -248q-137 -80 -170 -80q-21 0 -21 16z" />
<glyph unicode="&#x15a;" horiz-adv-x="1837" d="M195 469q0 242 204 395q188 139 439 140q184 0 305 -82q139 -94 139 -271q0 -186 -147 -295q-133 -98 -326 -98q-63 0 -168 21q-135 25 -135 61q2 6 4 6q35 0 134 -28.5t157 -28.5q176 0 301 86q145 96 145 264q0 145 -123 221q-102 61 -258 62q-229 0 -407 -134 q-199 -145 -199 -366q0 -203 176 -309q147 -90 363 -90q358 0 600 282q166 195 325 608q-57 -8 -118 -8q-213 0 -371 103q-184 121 -184 321q0 188 161 299q141 96 340 96q338 0 551 -262q233 195 371 195q121 0 121 -127q0 -145 -174 -307q-199 -184 -510 -279 q-174 -434 -406 -665q-291 -291 -698 -291q-244 0 -416 114q-196 134 -196 367zM1114 1360q0 -184 205 -297q170 -96 369 -96q10 0 32 2h31q127 260 330 469q-199 254 -529 254q-166 0 -292 -80q-146 -94 -146 -252zM1935 1001q279 66 465 244q162 156 162 289q0 92 -90 92 q-72 0 -176 -84q-78 -61 -144 -139q76 -96 76 -137q0 -10 -10 -11q-10 0 -31 35q-31 55 -55 84q-111 -146 -197 -373zM2353 1831q0 12 64 55q78 53 127 123q6 8 61 131q33 72 82 72q70 0 70 -70q0 -121 -215 -248q-135 -80 -170 -79q-19 0 -19 16z" />
<glyph unicode="&#x15b;" horiz-adv-x="509" d="M-72 111q0 29 21.5 51t50.5 22q49 0 49 -43q0 -12 -14.5 -42.5t-14.5 -47.5q0 -25 35 -24q74 0 150 127q88 150 88 360q0 29 -4 90q-94 -94 -209 -229q-72 -84 -86 -84q-12 0 -12 8q0 16 303 350q41 98 96 99q47 0 47 -46q0 -37 -49 -59q-29 -14 -43 -20q-14 -14 -14 -64 q0 -47 21.5 -139t21.5 -139q0 -74 -31 -138l94 99q84 90 92 90q14 0 15 -10q0 -14 -93 -113q-100 -106 -157 -148q-100 -74 -199 -73q-63 0 -110.5 31t-47.5 92zM414 774q0 12 39 39q55 37 104 107q4 6 61 133q33 72 82 71q70 0 70 -71q0 -123 -215 -248q-80 -47 -123 -47 q-18 0 -18 16z" />
<glyph unicode="&#x179;" horiz-adv-x="1916" d="M190 147q0 219 279 355q227 111 471 110q96 0 186 -16l273 330q154 182 268 305q-145 41 -215 176l-78 152q-51 66 -151 65q-188 0 -385 -164q-219 -182 -220 -393q0 -92 52 -154q55 -68 145 -67q135 0 262 127q102 102 168 250q25 53 45 131q12 45 25 45q10 0 10 -27 q0 -131 -67.5 -278.5t-167.5 -225.5q-113 -88 -242 -88q-121 0 -194.5 76t-73.5 197q0 250 251 444q229 176 451 176q127 0 199 -53q61 -45 129 -164l49 -88q31 -45 67 -70q350 358 568 359q131 0 131 -117q0 -168 -223 -262q-172 -70 -367 -70q-51 0 -92 2l-553 -639 q201 -76 252 -254q14 -63 47 -188q20 -76 74 -76q94 0 272 187q88 92 92 92q10 0 10 -10q0 -31 -125 -154q-174 -172 -317 -172q-100 0 -158 115q-31 61 -61 200q-35 162 -135 207q-492 -530 -776 -530q-78 0 -126.5 41.5t-48.5 117.5zM225 150q0 -127 142 -127 q287 0 708 514q-78 20 -188 20q-219 0 -416 -94q-246 -116 -246 -313zM1798 1272q66 -16 139 -17q145 0 285 68q168 84 168 215q0 84 -94 84q-195 0 -498 -350zM1802 1831q0 12 64 55q80 53 129 123q4 6 59 131q31 72 82 72q72 0 72 -70q0 -119 -215 -248q-133 -80 -172 -79 q-19 0 -19 16z" />
<glyph unicode="&#x17a;" horiz-adv-x="772" d="M-86 20q0 53 109 113q262 223 458 373q-100 -29 -151 -29q-80 0 -129 47q-72 -92 -150 -182l-37 -43q-12 -14 -18 -14q-10 0 -12 8v8q0 6 2 10l26 33q47 57 170 215q-12 33 -12 41q0 72 78 72q63 0 63 -51q0 -14 -9 -38t-9 -30q0 -41 74 -41q90 0 155 37q39 23 86 67 q37 37 58 37q33 0 32 -26q0 -29 -28 -49q-6 -6 -82 -48q-215 -152 -406 -315q152 70 195 70q39 0 65.5 -24.5t26.5 -61.5q0 -33 -24.5 -87.5t-24.5 -62.5q0 -27 16 -26q39 0 219 178q31 31 88 96q31 35 39 35q14 0 15 -10q0 -20 -113 -136q-197 -199 -270 -198 q-96 0 -97 131q0 20 10.5 53t10.5 47q0 10 -16 10q-102 0 -226 -96q-33 -27 -88 -94q-37 -45 -63 -45q-31 -1 -31 26zM412 741q0 14 63 56q82 53 129 123q2 2 60 133q33 72 84 71q70 0 69 -71q0 -123 -215 -248q-137 -80 -172 -80q-18 0 -18 16z" />
<glyph unicode="&#x17b;" horiz-adv-x="1916" d="M190 147q0 219 279 355q227 111 471 110q96 0 186 -16l273 330q154 182 268 305q-145 41 -215 176l-78 152q-51 66 -151 65q-188 0 -385 -164q-219 -182 -220 -393q0 -92 52 -154q55 -68 145 -67q135 0 262 127q102 102 168 250q25 53 45 131q12 45 25 45q10 0 10 -27 q0 -131 -67.5 -278.5t-167.5 -225.5q-113 -88 -242 -88q-121 0 -194.5 76t-73.5 197q0 250 251 444q229 176 451 176q127 0 199 -53q61 -45 129 -164l49 -88q31 -45 67 -70q350 358 568 359q131 0 131 -117q0 -168 -223 -262q-172 -70 -367 -70q-51 0 -92 2l-553 -639 q201 -76 252 -254q14 -63 47 -188q20 -76 74 -76q94 0 272 187q88 92 92 92q10 0 10 -10q0 -31 -125 -154q-174 -172 -317 -172q-100 0 -158 115q-31 61 -61 200q-35 162 -135 207q-492 -530 -776 -530q-78 0 -126.5 41.5t-48.5 117.5zM225 150q0 -127 142 -127 q287 0 708 514q-78 20 -188 20q-219 0 -416 -94q-246 -116 -246 -313zM1798 1272q66 -16 139 -17q145 0 285 68q168 84 168 215q0 84 -94 84q-195 0 -498 -350zM1948 2107q0 37 29.5 71t66.5 34q63 0 63 -68q0 -39 -28.5 -72.5t-65.5 -33.5q-65 -1 -65 69z" />
<glyph unicode="&#x17c;" horiz-adv-x="772" d="M-86 20q0 53 109 113q262 223 458 373q-100 -29 -151 -29q-80 0 -129 47q-72 -92 -150 -182l-37 -43q-12 -14 -18 -14q-10 0 -12 8v8q0 6 2 10l26 33q47 57 170 215q-12 33 -12 41q0 72 78 72q63 0 63 -51q0 -14 -9 -38t-9 -30q0 -41 74 -41q90 0 155 37q39 23 86 67 q37 37 58 37q33 0 32 -26q0 -29 -28 -49q-6 -6 -82 -48q-215 -152 -406 -315q152 70 195 70q39 0 65.5 -24.5t26.5 -61.5q0 -33 -24.5 -87.5t-24.5 -62.5q0 -27 16 -26q39 0 219 178q31 31 88 96q31 35 39 35q14 0 15 -10q0 -20 -113 -136q-197 -199 -270 -198 q-96 0 -97 131q0 20 10.5 53t10.5 47q0 10 -16 10q-102 0 -226 -96q-33 -27 -88 -94q-37 -45 -63 -45q-31 -1 -31 26zM602 1018q0 37 30 71.5t66 34.5q61 0 62 -69q0 -39 -27.5 -72t-64.5 -33q-66 0 -66 68z" />
<glyph unicode="&#x2c6;" horiz-adv-x="2340" d="M471 1026l610 645h174l611 -645h-97l-602 530l-606 -530h-90z" />
<glyph unicode="&#x2da;" horiz-adv-x="479" d="M707 434q0 131 92 222.5t223 91.5t221 -91t90 -223q0 -131 -92 -221t-223 -90t-221 90t-90 221zM778 434q0 -100 72 -171.5t172 -71.5t171 71.5t71 171.5t-71 172t-171 72q-102 0 -173 -71t-71 -173z" />
<glyph unicode="&#x2dc;" horiz-adv-x="479" d="M-139 123v104q238 166 442 166q113 0 335 -79.5t327 -79.5q184 0 442 184v-107q-240 -168 -442 -168q-106 0 -329.5 80t-332.5 80q-182 0 -442 -180z" />
<glyph unicode="&#x2000;" horiz-adv-x="1105" />
<glyph unicode="&#x2001;" horiz-adv-x="2211" />
<glyph unicode="&#x2002;" horiz-adv-x="1105" />
<glyph unicode="&#x2003;" horiz-adv-x="2211" />
<glyph unicode="&#x2004;" horiz-adv-x="737" />
<glyph unicode="&#x2005;" horiz-adv-x="552" />
<glyph unicode="&#x2006;" horiz-adv-x="368" />
<glyph unicode="&#x2007;" horiz-adv-x="368" />
<glyph unicode="&#x2008;" horiz-adv-x="276" />
<glyph unicode="&#x2009;" horiz-adv-x="442" />
<glyph unicode="&#x200a;" horiz-adv-x="122" />
<glyph unicode="&#x2010;" horiz-adv-x="833" d="M131 289l49 102h545l-49 -102h-545z" />
<glyph unicode="&#x2011;" horiz-adv-x="833" d="M131 289l49 102h545l-49 -102h-545z" />
<glyph unicode="&#x2012;" horiz-adv-x="833" d="M131 289l49 102h545l-49 -102h-545z" />
<glyph unicode="&#x2013;" horiz-adv-x="1169" d="M18 299l48 80h1124l-49 -80h-1123z" />
<glyph unicode="&#x2014;" horiz-adv-x="2340" d="M-23 299l46 80h2340l-47 -80h-2339z" />
<glyph unicode="&#x2018;" horiz-adv-x="477" d="M461 1337q0 82 114 201q164 170 209 170q23 0 23 -16q0 2 -82 -79t-96 -126l-25 -144q-14 -78 -74 -77q-69 -1 -69 71z" />
<glyph unicode="&#x2019;" horiz-adv-x="477" d="M154 766q0 -4 81.5 78t96.5 125q10 68 20 133q23 88 78 88q72 0 72 -70q0 -82 -115 -202q-162 -170 -209 -170q-24 0 -24 18z" />
<glyph unicode="&#x201a;" horiz-adv-x="477" d="M-84 -262q0 2 81 77.5t97 129.5q10 66 21 133q23 86 78 86q70 0 69 -70q0 -84 -115 -205q-160 -168 -208 -168q-23 1 -23 17z" />
<glyph unicode="&#x201c;" horiz-adv-x="741" d="M461 1337q0 82 114 201q164 170 209 170q23 0 23 -16q0 2 -82 -79t-96 -126l-25 -144q-14 -78 -74 -77q-69 -1 -69 71zM727 1337q0 80 115 201q162 170 209 170q20 0 20 -16l-78 -76q-84 -78 -98 -129q-10 -68 -23 -133q-23 -88 -75 -88q-70 -1 -70 71z" />
<glyph unicode="&#x201d;" horiz-adv-x="741" d="M412 1282q0 2 80.5 77t97.5 128q10 66 20 133q23 86 78 86q70 0 70 -68q0 -84 -115 -202q-164 -170 -207 -170q-24 0 -24 16zM678 1282q0 2 81 77t97 128q10 66 21 133q23 86 77 86q68 0 68 -68q0 -84 -115 -202q-162 -170 -207 -170q-22 0 -22 16z" />
<glyph unicode="&#x201e;" horiz-adv-x="741" d="M-51 -262q0 2 80 77.5t96 129.5q10 66 20 133q23 86 78 86q70 0 70 -70q0 -86 -115 -205q-162 -168 -209 -168q-20 1 -20 17zM213 -262q0 2 81 77.5t97 129.5q10 66 21 133q23 86 77 86q68 0 68 -70q0 -84 -115 -205q-160 -168 -209 -168q-20 1 -20 17z" />
<glyph unicode="&#x2026;" horiz-adv-x="2340" d="M268 55q0 39 29 74t68 35q66 0 65 -68q0 -37 -27.5 -72.5t-64.5 -35.5q-70 -1 -70 67zM1049 55q0 39 28.5 74t67.5 35q66 0 65 -68q0 -37 -28.5 -72.5t-65.5 -35.5q-27 0 -47 20t-20 47zM1831 55q0 39 28.5 74t67.5 35q66 0 66 -68q0 -37 -29 -72.5t-66 -35.5 q-27 0 -47 20t-20 47z" />
<glyph unicode="&#x202f;" horiz-adv-x="442" />
<glyph unicode="&#x2030;" horiz-adv-x="1896" d="M12 -121q0 18 74 90l1040 1020q-139 -70 -235 -69q-121 0 -184 59q-18 -135 -107 -266q-104 -154 -227 -154q-70 0 -110 51.5t-40 122.5q0 135 115 267.5t248 132.5q78 0 119 -72q37 -63 72.5 -84t111.5 -21q90 0 182 48q57 29 133 86q63 47 78 47q16 0 16 -9 q0 -18 -63 -84l-1077 -1099l-60 -60q-25 -20 -55 -20q-31 0 -31 14zM295 684q0 -88 76 -88q106 0 204 149q92 137 93 250q0 96 -78 97q-70 0 -158 -111q-137 -172 -137 -297zM741 162q0 135 117 267t250 132q123 0 123 -137q0 -131 -103 -279q-113 -158 -237 -157 q-68 0 -109 52t-41 122zM817 115q0 -88 74 -88q106 0 207 149q92 137 92 250q0 96 -78 96q-68 0 -158 -112q-137 -170 -137 -295zM1329 162q0 137 113.5 268t249.5 131q125 0 125 -137q0 -131 -103 -279q-113 -158 -237 -157q-68 0 -108 52t-40 122zM1403 115q0 -88 74 -88 q106 0 206 149q92 137 93 250q0 96 -78 96q-66 0 -158 -112q-137 -168 -137 -295z" />
<glyph unicode="&#x2039;" horiz-adv-x="497" d="M135 354l326 240q23 16 35 16q25 0 24 -20q0 -12 -26 -35l-252 -215l75 -246q8 -25 9 -28q0 -27 -19 -27q-20 0 -39 37z" />
<glyph unicode="&#x203a;" horiz-adv-x="497" d="M-27 61q0 12 27 35l252 215l-76 246q-8 25 -8 29q0 25 18 24q23 0 39 -35l133 -278l-325 -242q-29 -16 -35 -16q-25 -1 -25 22z" />
<glyph unicode="&#x205f;" horiz-adv-x="552" />
<glyph unicode="&#x2122;" horiz-adv-x="1923" d="M291 1438l10 198h500l12 -198h-27q-18 172 -163 172h-27v-486q0 -63 57 -63h35v-29h-276v29h37q57 0 57 63v486h-27q-145 0 -164 -172h-24zM915 1032v27h35q55 0 56 65v418q0 66 -56 66h-35v28h195l166 -473l180 473h184v-28h-34q-55 0 -56 -64v-420q0 -63 56 -63h34v-29 h-260v29h35q57 0 58 63v463l-213 -559h-11l-198 557v-461q0 -63 57 -63h35v-29h-228z" />
<glyph unicode="&#x2260;" d="M603 -49l735 1501h123l-840 -1509zM291 444v93h1368v-93h-1368zM291 858v92h1368v-92h-1368z" />
<glyph unicode="&#xe000;" horiz-adv-x="660" d="M0 660h660v-660h-660v660z" />
</font>
</defs>
</svg>
